<svg xmlns="http://www.w3.org/2000/svg" viewBox="0 0 500 500"><path d="M220.28 327.8c-6.93-10.79-27.48-42.12-38.01-58.04h-1.03c-13.35 20.8-27.48 39.81-43.4 61.12-6.68 8.99-17.98 11.56-27.74 4.37-8.73-6.42-10.27-16.69-2.57-26.71 15.41-20.03 33.39-43.15 50.85-66-6.68-9.76-41.09-53.42-50.34-66-8.22-11.04-6.68-21.83 4.88-29.28 10.79-6.93 21.06-4.11 29.02 7.45 13.35 19 27.48 38.27 40.58 57.27h1.03c11.56-17.72 24.91-39.04 36.72-58.04 6.68-10.79 16.69-13.35 27.74-7.45 11.04 5.91 13.1 15.92 6.16 26.97-13.87 22.09-31.33 44.94-46.48 66 15.92 22.09 40.32 54.19 48.28 67.54 6.93 11.56 4.62 21.83-6.42 29.02-10.27 6.68-21.57 3.6-29.28-8.22zM390.8 335.77h-72.17c-17.72 0-25.68-8.73-25.68-26.45V164.99c0-13.61 8.22-21.06 22.09-21.32s22.09 7.7 22.09 21.32v138.17c0 2.31 1.03 2.83 2.83 2.83h50.85c9.5 0 14.9 5.14 14.9 14.9s-5.14 14.9-14.9 14.9z"/></svg>