<svg xmlns="http://www.w3.org/2000/svg" viewBox="0 0 500 500"><path d="M314.06 322.45v-81.27c0-9.45 3.24-31.32 4.59-40.23l-1.89-.27c-10.26 38.88-26.19 75.87-41.31 108.81-5.67 12.69-11.61 18.36-23.76 18.36s-19.71-5.94-25.11-18.36c-14.58-32.67-31.05-70.74-42.93-109.35h-1.89c1.35 8.64 3.51 29.7 3.51 40.23v82.08c0 14.31-7.56 22.14-21.33 22.14-12.96 0-20.79-8.1-20.79-22.14V170.98c0-21.06 11.07-32.4 29.97-32.4 16.2 0 23.49 7.29 31.86 27.54 14.58 35.1 36.45 89.37 46.44 115.02h.54l42.12-115.83c7.29-19.71 16.2-27.27 35.37-27 18.63.27 27.81 10.53 27.81 31.59v152.55c0 14.31-8.1 22.14-21.6 22.14s-21.6-8.1-21.6-22.14z"/></svg>