<svg xmlns="http://www.w3.org/2000/svg" viewBox="0 0 500 500"><path d="M210.79 327.74c-6.93-10.79-27.48-42.12-38.01-58.04h-1.03c-13.35 20.8-27.48 39.81-43.4 61.12-6.68 8.99-17.98 11.56-27.74 4.37-8.73-6.42-10.27-16.69-2.57-26.71 15.41-20.03 33.39-43.15 50.85-66-6.68-9.76-41.09-53.42-50.34-66-8.22-11.04-6.68-21.83 4.88-29.28 10.79-6.93 21.06-4.11 29.02 7.45 13.35 19 27.48 38.27 40.58 57.27h1.03c11.56-17.72 24.91-39.04 36.73-58.04 6.68-10.79 16.69-13.35 27.74-7.45 11.04 5.91 13.1 15.92 6.16 26.97-13.87 22.09-31.33 44.94-46.48 66 15.92 22.09 40.32 54.19 48.28 67.54 6.93 11.56 4.62 21.83-6.42 29.02-10.27 6.68-21.57 3.6-29.28-8.22zM298.1 292.56c10.53 8.22 22.09 16.18 39.81 16.18 15.67 0 25.17-6.68 25.43-19 .26-10.02-3.34-20.29-33.13-35.7-38.52-20.29-54.96-35.96-54.96-62.41 0-29.28 26.45-48.28 67.8-48.28 25.17 0 44.69 7.19 53.42 15.67 7.19 6.93 8.73 15.92 3.85 23.37-5.39 7.96-15.41 9.5-23.37 2.83-8.73-7.19-18.75-11.56-34.16-11.3-14.12.26-22.34 5.91-22.34 14.64 0 9.76 3.6 18.49 33.64 33.9 38.78 20.29 54.96 36.47 54.96 62.15 0 34.41-25.94 54.96-68.83 54.96-29.53 0-50.59-9.76-61.12-20.29-6.93-6.93-7.7-16.44-2.31-23.88 5.14-6.93 14.38-8.22 21.32-2.82z"/></svg>