<svg xmlns="http://www.w3.org/2000/svg" viewBox="0 0 500 500"><path d="M204.79 295.17c11.07 8.64 23.22 17.01 41.85 17.01 16.47 0 26.46-7.02 26.73-19.98.27-10.53-3.51-21.33-34.83-37.53-40.5-21.33-57.78-37.8-57.78-65.61 0-30.78 27.81-50.76 71.28-50.76 26.46 0 46.98 7.56 56.16 16.47 7.56 7.29 9.18 16.74 4.05 24.57-5.67 8.37-16.2 9.99-24.57 2.97-9.18-7.56-19.71-12.15-35.91-11.88-14.85.27-23.49 6.21-23.49 15.39 0 10.26 3.78 19.44 35.37 35.64 40.77 21.33 57.78 38.34 57.78 65.34 0 36.18-27.27 57.78-72.36 57.78-31.05 0-53.19-10.26-64.26-21.33-7.29-7.29-8.1-17.28-2.43-25.11 5.4-7.29 15.12-8.64 22.41-2.97z"/></svg>