<svg xmlns="http://www.w3.org/2000/svg" viewBox="0 0 500 500"><path d="M205.44 367.72c-21.03-38.1-50.96-66.23-91.4-83.64.54-1.41 1.06-2.91 1.7-4.37 14.67-33.9 38.51-59.81 69.54-79.3 30.19-18.97 63.01-29.15 98.88-28.59 6.19.1 6.71.6 7.4 6.6 4.67 40.32.01 79.21-18.42 115.79-15.18 30.13-37.02 54.38-65.58 72.48-.6.38-1.29.63-2.12 1.03zM185.32 382.67c-29.64 15.09-60.46 21.21-93.41 20.9-4.74-33.59-2.88-66.39 8.08-99.2 38 15.8 65.76 41.99 85.33 78.3zM403.45 176.81l-5.52 5.52c-1.1.67-2.29 1.24-3.3 2.02-19.26 14.77-50.37 13.56-76.05-3.45-6.42-4.25-12.26-9.71-18.29-14.71-17.34-14.36-28.77-31.8-32.61-51.86-5.01-26.19 1.21-46.74 20.98-59.59 3.37-2.19 6.49-1.13 9.9 1.99 21.85 19.93 32.85 42.64 32.41 68.29-.04 2.29-.21 4.55-.33 7.16 1.33-.25 2.2-.39 3.04-.58 25.33-5.65 49.7 2.07 73.08 23.01 4.76 4.27 5.55 7.12 3.16 11.52-1.99 3.67-4.3 7.12-6.46 10.67z"/></svg>