<svg xmlns="http://www.w3.org/2000/svg" viewBox="0 0 500 500"><path d="M287.23 369.55c-6.19 16.64-16.07 29.67-35.13 29.61-18.94-.06-28.51-13.28-35.25-30.74-1.81 3.8-2.71 6.65-4.36 8.96-4.22 5.91-7.92 12.62-13.37 17.14-13.72 11.37-32.16 7.76-43.43-7.62-11.14-15.19-13.38-32.18-9.19-50.1 1.13-4.83.12-7.64-3.6-10.68-27.37-22.37-44.9-50.47-47.88-86.24-2.55-30.68 6.74-58.05 25.93-81.93 27.9-34.72 65.13-52.6 108.57-58.22 37.27-4.82 72.98 1.03 106.26 18.84 24.8 13.28 45.85 30.96 59.22 56.25 20.46 38.68 20.48 77.27-1.85 115.38-8.25 14.09-18.83 26.18-31.66 36.23-3.51 2.75-4.57 5.67-3.48 9.95 3.98 15.67 2.52 30.87-5.58 44.92-2.88 5-6.83 9.82-11.35 13.36-13.98 10.97-31.96 7.76-43.16-7.47-3.17-4.31-5.23-9.44-7.78-14.2-.56-1.05-1.06-2.14-1.59-3.22l-1.34-.24zm-39.95-210.06c-23.6.57-49.47 7.89-70.77 27.61-25.91 23.99-27.21 60.82-2.82 86.26 16.48 17.19 37.29 25.97 60.51 29.08 29.4 3.94 57.37-.38 82.45-17.14 16.07-10.74 28.03-24.92 30.9-44.73 3.66-25.17-7.05-44.55-26.47-59.42-20.28-15.53-43.84-21.49-73.81-21.66z"/></svg>