<svg xmlns="http://www.w3.org/2000/svg" viewBox="0 0 500 500"><path d="M138.16 206.88c-.53 31.99 2.56 63.26 18.05 92.32 0-2 .15-4.01-.02-6-1.42-16.08-2.04-32.13.05-48.24 3.81-29.35 16.39-54.16 38.18-74.11 8.61-7.88 17.86-15.06 26.83-22.54 19-15.84 25.95-36.24 22.89-60.42-.72-5.68-1.53-11.35-2.38-17.66 1.33.56 1.99.66 2.4 1.04 18.16 16.84 33.83 35.4 41.12 59.7 3.12 10.42 3.47 21.12 2.97 31.91-.18 3.85-2.71 4.75-5.74 5.78-23.05 7.83-32.97 34.08-20.8 54.77 7.79 13.23 23.23 20.54 37.41 17.69 15.71-3.15 27.56-15.48 30.16-30.81 2.06-12.19-1.35-23.43-5.09-34.7-.42-1.27-.84-2.54-1.73-5.21 2.57 1.35 4.02 2.03 5.39 2.85 31.96 19.15 50.13 47.42 54.43 84.23 4.65 39.83-9.46 72.76-40.07 98-18.14 14.96-40.1 18.02-64.31 14.6 1.75-1.81 2.72-3.02 3.89-3.99 25.95-21.64 23.2-53.65 8.72-72.66-12.23-16.05-29.37-22.46-49.08-18.43-20.14 4.11-33.04 17.18-38.38 37.03-6.03 22.4 2.09 40.59 18.13 55.92 20.25 19.36 44.99 25.02 72.09 22.94 21.05-1.62 40.66-8.34 59.61-17.27 1.8-.85 3.68-1.55 5.52-2.33.32.32.64.64.96.95-4.09 5.22-7.9 10.68-12.31 15.61-15.36 17.21-34.91 26.89-57.14 32.28-39.44 9.56-77.12 5.35-111.77-15.69-36.24-22.01-56.52-54.82-60.63-97.43-3.35-34.8 5.08-67.27 18.35-98.9.22-.53.74-.94 1.13-1.41.4.06.8.11 1.2.17z"/></svg>