<svg xmlns="http://www.w3.org/2000/svg" viewBox="0 0 500 500"><path d="M283.08 361.71c-37.49 0-74.98 0-112.47-.01-2.16 0-4.34-.03-6.48-.26-4.39-.46-7-2.84-7.35-7.37-.16-1.99-.29-3.99-.29-5.98-.04-65.83-.08-131.65-.1-197.48 0-9.62 1.76-11.47 11.25-11.56 8.82-.08 17.65-.07 26.47-.02 7.63.04 10.25 2.57 10.27 10.22.07 21.66 0 43.33.03 64.99 0 9.28 8.24 14.29 16.32 9.36 2.17-1.32 3.59-5.52 3.63-8.42.31-20.83.17-41.66.19-62.49 0-1.83-.03-3.67.11-5.49.44-5.64 2.41-7.81 8.13-7.93 10.49-.21 20.99-.24 31.47-.01 6.17.13 8.12 2.46 8.14 8.85.04 20.83.02 41.66.02 62.49 0 1.33-.34 2.79.07 3.98 1.08 3.12 1.85 8.09 3.91 8.77 4.08 1.34 9.24 1.18 13.35-.18 1.91-.63 3.31-5.5 3.39-8.49.37-12.99.17-25.99.17-38.99 0-9-.05-18 .02-27 .07-8.17 2.32-10.4 10.39-10.42 8.83-.03 17.66-.02 26.49 0 8.2.02 10.46 2.18 10.48 10.29.04 21.5.01 42.99.03 64.49 0 10.53 5.27 14.34 15.51 11.31 4.66-1.38 5.26-5.1 5.26-9.11.03-16.66.01-33.33.02-49.99 0-5.83-.11-11.67.06-17.5.17-6.22 2.29-8.5 8.51-8.61 10.32-.18 20.66-.16 30.98.08 6.09.14 8.33 2.63 8.33 8.77.01 67.82 0 135.65-.06 203.47 0 7.84-2.49 10.09-10.79 10.1-38.49.02-76.98.01-115.47.01v.1zM139.84 283.64c0 22.47.12 44.95-.14 67.42-.04 3.18-1.11 7.2-3.22 9.31-3.82 3.82-13.31 2.09-16.66-2.26-1.01-1.3-1.8-2.8-2.56-4.27-7.41-14.32-14.99-28.55-22.04-43.04-1.96-4.02-3.05-8.79-3.27-13.27-.49-10.29-.41-20.63-.09-30.94.1-3.35 1.12-6.92 2.63-9.94 7.79-15.61 15.85-31.09 23.87-46.58 2.97-5.75 8.12-7.53 15.84-5.55 5.37 1.38 5.91 5.65 5.91 10.21v68.91h-.26z"/></svg>