<svg xmlns="http://www.w3.org/2000/svg" viewBox="0 0 500 500"><path d="M404.67 293.3c-1.83 10.19-2.69 20.67-5.65 30.52-16.59 55.38-53.31 90.12-109.19 104.66-1.31.34-2.87.47-4.13.09-32.68-10.05-54.09-31.59-65.46-64.33 5.88 1.44 11.07 3.07 16.38 3.95 48.29 8.03 90.56-30.57 86.2-79.17-2.2-24.45-14.22-43.52-35.26-56.38-4.22-2.58-5.49-5.19-5.43-9.99.2-14.73-6.58-25.97-18.74-34.07-.52-.35-1.07-.67-1.64-.93-.26-.12-.6-.05.23 0-.76 9.39-.71 18.88-2.45 28.04-2.59 13.6-10.77 23.9-23.95 28.27-19.39 6.42-39.02 12.39-58.92 16.92-25.94 5.91-52.25 10.23-78.4 15.2-1.36.26-2.77.2-5.39.36 2.49-8.17 4.44-15.87 7.16-23.28 10.35-28.12 24.68-53.96 46.05-75.24 5.91-5.88 13.25-10.79 20.74-14.52 31.31-15.57 59.17-35.28 78.75-64.8 5.75-8.67 9.38-18.74 13.99-28.17h.95c7.48 22.48 7.1 44.58-3.53 66.24 6.79.64 13.24 1.07 19.64 1.87 59.08 7.37 109.27 51.98 123.31 109.83 2.14 8.84 3.19 17.94 4.74 26.92v18.02zm-256.71-54.32c13.19-2.57 25.68-8.62 33.56-15.77 10.1-9.17 13.31-24.84 7.34-35.16-19.8 3.05-39.52 27.4-40.9 50.92z"/><path d="M224.8 428.37c-53.82-10.48-100.72-56.62-111.82-112.45 33.81-8.29 67.65-16.6 102.23-25.08-34.39 49.04-32.01 94.62 9.59 137.53z"/></svg>