<svg xmlns="http://www.w3.org/2000/svg" viewBox="0 0 500 500"><path d="M381.22 370.02c-11.07 9.59-23.4 16.94-36.89 22.12-52.84 20.28-105.55 20.47-156.72-4.48-48.82-23.8-75.73-64.18-81.06-118.11-4.45-44.98 6.27-85.94 36.43-120.68 21.26-24.49 48.48-39.05 79.74-46.33 33.26-7.75 66.01-6.19 97.48 7.66 44.79 19.71 69.94 54.51 76.39 102.79 4.03 30.18-1.78 58.85-20.23 82.97-25.13 32.85-58.94 50.54-101.16 45.61-64-7.47-94.12-70.15-71.63-119.95 16.54-36.63 69.09-51.42 99.99-26.99 19.4 15.34 26.7 43.33 15.51 62.84-10.02 17.45-31.46 26.33-49.62 20.55-15.85-5.04-25.3-22.02-20.59-37.57.53-1.74 3.14-2.85 4.78-4.25 1.11 1.87 3.26 3.81 3.14 5.59-.64 9.38 1.94 17.12 10.83 21.19 9.24 4.22 18.19 2.24 25.86-3.98 11.15-9.05 11.48-27.22 1.12-38.86-17.64-19.82-50.79-14.5-63 10.11-13.15 26.51-.33 57.16 28.88 69.06 33.31 13.57 73.32-6.29 85.16-42.29 13.92-42.31-10.32-87.77-54.47-102.11-59.35-19.29-121.33 16.2-134.83 77.19-16.49 74.48 32.41 145.95 107.8 158.26 38.96 6.37 75.68.08 110.82-17.21 2.1-1.03 4.18-2.09 6.27-3.14z"/></svg>