<svg xmlns="http://www.w3.org/2000/svg" viewBox="0 0 500 500"><path d="M338.19 123c-3.79 25.39-7.48 50.16-11.17 74.94-1.86 12.48-3.82 24.94-5.48 37.44-.52 3.89-1.86 6.56-5.26 8.89-45.89 31.44-91.67 63.06-137.47 94.64-6.68 4.61-13.22 9.42-20.06 13.77-1.81 1.15-4.79 1.81-6.76 1.18-22.27-7.05-44.44-14.43-66.68-21.6-2.71-.87-3.38-2.3-3.36-5.02.11-22.15-.03-44.3.19-66.45.03-2.54 1.25-5.51 2.88-7.51 15.26-18.79 30.69-37.45 46.15-56.08 17.16-20.68 35.17-40.71 51.28-62.17 7.66-10.21 15.96-12.43 27.7-12.26 40.63.6 81.27.23 121.91.23h6.15zM362.61 319.09c-8.53 6.23-16.76 12.33-25.08 18.31-22.04 15.85-44.09 31.69-66.24 47.39-1.79 1.27-4.69 2.56-6.49 1.99-25.25-7.98-50.39-16.28-76.79-24.91 46.78-32.01 92.7-63.44 139.17-95.24 11.68 17.3 23.33 34.55 35.43 52.47zM384.63 302.85c-13.08-17.82-25.98-35.26-38.64-52.88-1.17-1.63-1.46-4.44-1.1-6.53 6.57-39.13 13.28-78.25 20.11-117.33.22-1.29 2.42-3.38 3.19-3.18 1.67.44 3.87 1.84 4.37 3.34 5.12 15.24 9.98 30.56 14.83 45.89 10.44 33.02 20.87 66.05 31.11 99.13.59 1.9.16 5.33-1.15 6.41-9.96 8.23-20.25 16.06-30.46 24-.5.39-1.14.6-2.25 1.16z"/></svg>