<svg xmlns="http://www.w3.org/2000/svg" viewBox="0 0 500 500"><path d="M428.08 352.69H166.29c1.69-4.42 3.22-8.52 4.81-12.59 24.53-62.67 49.11-125.32 73.52-188.04 1.56-4.02 3.48-5.44 7.9-5.41 30.15.22 60.3.23 90.45 0 4.68-.04 6.5 1.56 8.14 5.82 24.92 65.01 50.07 129.93 75.15 194.88.59 1.52 1.06 3.08 1.83 5.34zM184.28 193.17c-3.88 10.43-7.5 20.2-11.15 29.96-15.75 42.03-31.55 84.05-47.2 126.12-1.23 3.3-2.69 4.61-6.36 4.55-14.49-.23-28.99-.09-43.49-.11-1.61 0-3.22-.17-5.5-.3 4.23-11 8.25-21.5 12.31-31.99 15.84-40.93 31.76-81.83 47.42-122.83 1.65-4.32 3.73-5.64 8.26-5.53 13.32.34 26.66.12 39.99.12h5.71z"/></svg>