<svg xmlns="http://www.w3.org/2000/svg" viewBox="0 0 500 500"><path d="M301.11 406.88H277.4c-1.39-.22-2.77-.5-4.17-.64-10.35-1.04-20.78-1.57-31.04-3.17-30.46-4.75-58.78-15.03-84.15-33.01-32.71-23.17-52.77-54.56-61.14-93.5-1.84-8.58-2.36-17.44-3.49-26.17v-12.33c1.03-7.64 1.57-15.37 3.17-22.89 14.21-66.95 72.25-117.58 140.52-122.11 45.17-3 85.74 9.67 118.48 41.26 44.35 42.8 58.81 95.09 43.14 154.9-5.93 22.64-18.63 41.95-33.85 59.59-7.87 9.12-7.88 17.34.62 25.94 4.15 4.2 9.35 7.38 14.12 10.97 1.39 1.05 2.92 1.92 5.01 3.28-18.58 8.34-36.79 14.23-56.12 16.02-9.1.84-18.25 1.26-27.37 1.87zm-72.97-180.09c-11.32 4.58-22.59 5.4-33.5-.89-11.15-6.43-16.25-16.67-17.72-29.09-13.13 5.21-20.57 23.98-15.98 39.35 5.18 17.31 22.67 27.41 40.94 23.64 15.07-3.11 28.03-18.99 26.26-33zm42.2-.11c-2.21 14.93 11.22 30.35 28.72 33.59 16.98 3.14 34.88-9.14 38.94-26.26 4.07-17.15-7.25-34.72-16.76-36.97-1.32 12.24-6.4 22.33-17.37 28.68-10.9 6.31-22.17 6.06-33.52.96z"/></svg>