<svg xmlns="http://www.w3.org/2000/svg" viewBox="0 0 500 500"><path d="M250.74 119.57c26.32 0 52.64.07 78.96-.08 3.29-.02 5 1.02 6.63 3.85 26.19 45.48 52.47 90.9 78.86 136.27 1.64 2.82 1.68 4.72.01 7.59-26.42 45.35-52.71 90.78-78.93 136.25-1.62 2.81-3.34 3.85-6.63 3.84-52.64-.11-105.28-.12-157.91 0-3.33 0-4.98-1.13-6.59-3.9-26.54-45.47-53.17-90.9-79.9-136.26-1.68-2.84-1.49-4.84.1-7.55 26.67-45.4 53.27-90.84 79.78-136.33 1.63-2.8 3.41-3.78 6.67-3.76 26.32.15 52.64.08 78.96.08zm77.03 143.56c-.3-42.9-34.98-77.43-77.6-77.26-43.18.17-77.41 34.72-77.21 77.93.2 43.17 34.82 77.21 78.17 76.86 42.58-.34 76.94-35.1 76.64-77.52z"/></svg>