<svg xmlns="http://www.w3.org/2000/svg" viewBox="0 0 500 500"><path d="M250.73 74.81c3.42 5.49 6.38 10.27 9.37 15.04 22.31 35.65 45.12 71.01 66.76 107.05 15.41 25.65 28.54 52.66 36.53 81.64 18.01 65.3-26.29 132.66-92.91 144.17-56.79 9.81-121.41-25.49-134.68-93.31-4.53-23.19-1.25-45.58 7.23-67.48 15.76-40.66 37.65-78 61.19-114.5 14.69-22.77 29.09-45.73 43.63-68.59.69-1.09 1.51-2.11 2.87-4.01zM189.38 290c-.96 1.43-2 2.82-2.87 4.3-15.11 25.68-10.21 56.42 12.19 76.63 14.75 13.31 32.39 17.44 51.74 16.67 25.3-1 51.36-21.19 57.78-45.62 1.72-6.53 2.05-13.43 3.01-20.16-.62-.38-1.25-.75-1.87-1.13-15.81 29.48-40.03 42.84-72.31 34.66-32.66-8.27-46.3-32.5-47.66-65.36z"/></svg>