<svg xmlns="http://www.w3.org/2000/svg" viewBox="0 0 500 500"><path d="M405.28 249.75c.1 85.64-69 154.84-154.63 155.15-84.37.31-153.78-67.45-155.4-151.9-1.66-86.75 67.43-156.38 151.66-158.16 88.09-1.87 158.67 69.5 158.38 154.91zM210.39 374.81c2.47.43 4.02.95 5.57.92 12.46-.21 25.04.49 37.35-1.01 37.06-4.52 68.54-20.38 93.31-48.7 31.33-35.82 37.16-86.85 14.26-127.93-18.38-32.97-46.93-53.34-82.53-64.26-19.87-6.1-40.24-8.3-61.94-5.92 42.93 31.14 65.49 72.49 64.37 124.74-1.13 52.51-25.68 92.88-70.39 122.16z"/></svg>