<svg xmlns="http://www.w3.org/2000/svg" viewBox="0 0 500 500"><path d="M346.33 403.15c-14.78-7.78-28.57-15.03-42.36-22.28-13.81-7.27-27.66-14.45-41.36-21.93-1.62-.89-3.35-3.38-3.37-5.14-.21-27.65-.15-55.3-.13-82.95 0-.78.2-1.56.4-2.97 3.49 1.74 6.54 3.27 9.6 4.79 24.21 12.01 48.38 24.11 72.67 35.95 3.54 1.73 4.66 3.73 4.63 7.6-.18 26.98-.09 53.97-.09 80.95v5.98zM259.4 235.45c-.12-1.74-.29-3.18-.3-4.62-.02-26.65-.06-53.3.09-79.95.01-1.96.99-4.93 2.45-5.71 27.81-14.89 55.75-29.51 84.18-44.46.2 1.6.48 2.82.48 4.04.02 27.98 0 55.96.07 83.94 0 2.59-.52 4.23-3.08 5.49-27.12 13.39-54.18 26.91-81.27 40.37-.7.35-1.49.52-2.63.9zM155.39 402.67v-5.97c0-26.65.13-53.3-.13-79.95-.04-4.58 1.53-6.63 5.49-8.57 25.64-12.53 51.14-25.36 76.7-38.07 1.45-.72 2.96-1.31 4.79-2.12.1 1.25.23 2.03.23 2.81.01 27.65.06 55.3-.11 82.95-.01 1.69-1.35 4.16-2.79 4.93-27.25 14.53-54.6 28.86-81.94 43.22-.42.22-.9.32-2.25.77zM242.09 235.74c-24.71-12.27-48.63-24.9-73.23-36.02-10.57-4.78-14.36-10.47-13.8-22.21 1.12-23.44.33-46.96.33-70.45v-6.19c1.78.78 3.07 1.25 4.28 1.89 26.31 13.83 52.6 27.69 78.91 41.5 2.3 1.21 4 2.27 3.99 5.47-.15 27.99-.09 55.98-.11 83.96 0 .47-.16.94-.36 2.05zM68.7 251.72c12.71-6.2 24.88-12.15 37.07-18.08 15.36-7.48 30.69-15 46.12-22.33 1.69-.8 4.33-1.21 5.88-.46 27.53 13.2 54.95 26.61 82.39 39.99.41.2.7.63 1.43 1.3-12.12 5.9-23.98 11.69-35.85 17.46-15.51 7.54-30.99 15.15-46.59 22.49-1.95.92-4.99 1.26-6.82.39-27.11-12.91-54.09-26.08-81.1-39.19-.68-.33-1.29-.79-2.53-1.56zM432.94 252.05c-28.61 13.87-56.5 27.41-84.45 40.83-1.25.6-3.31.51-4.58-.1-27.65-13.31-55.24-26.74-82.84-40.16-.26-.13-.46-.38-1.15-.97 6.93-3.39 13.56-6.64 20.21-9.88 20.88-10.16 41.74-20.37 62.69-30.37 1.8-.86 4.64-1.19 6.33-.38 27.22 13.05 54.34 26.32 81.47 39.56.56.28 1.07.68 2.32 1.48z"/></svg>