<svg xmlns="http://www.w3.org/2000/svg" viewBox="0 0 500 500"><path d="M353.52 135.43c-3.42 2.7-7.05 5.17-10.22 8.13-22.62 21.12-45.16 42.35-67.71 63.54-1.09 1.03-2.07 2.21-3.27 3.08-3.05 2.21-5.85 1.5-6.82-2.14-1.59-5.9-2.58-11.96-4.01-17.91a4790.13 4790.13 0 00-11.56-47.29c-.38-1.51-1.59-2.81-3.62-3.89-.93 4.3-2.31 8.56-2.7 12.92-2.38 26.18-5.82 52.31-5.03 78.69.23 7.77-2.46 14.27-7.99 19.65-10.74 10.44-21.41 20.95-32.3 31.22-1.43 1.35-4.41 2.43-6.01 1.85-1.64-.6-3.19-3.28-3.55-5.27-2.29-12.58-4.15-25.24-6.31-37.84-2.5-14.56-5.12-29.1-7.78-43.63-.62-3.41-1.49-6.79-2.49-10.11-.32-1.04-1.45-1.84-3.06-3.76-.95 9.05-2.28 16.71-2.47 24.4-.66 25.45-.79 50.92-1.38 76.37-.22 9.45-1.02 18.9-1.87 28.32-.21 2.37-1.41 4.74-2.49 6.94-3.16 6.47-23.2 27.07-30.97 31.56-5.35-9.01-11.32-17.74-15.96-27.13-12.06-24.38-16.69-50.49-14.01-77.42 4.54-45.72 25.34-81.88 65.47-105.74 19.61-11.66 40.8-19.61 62.86-25.14 21.2-5.32 42.45-10.48 63.84-14.95 12-2.51 24.34-3.41 36.51-5.16 6.08-.88 12.1-2.24 18.19-3.02 9.39-1.2 18.8-2.36 28.24-2.95 4.06-.25 8.28.63 12.29 1.59 4.59 1.1 7.63 5.94 8.13 11.44 3.38 37.06 4.17 74.21 1.72 111.29-1.38 20.84-5.26 41.52-8.15 62.25-2.34 16.82-7.12 33.01-13.88 48.54-15.5 35.59-41.54 59.91-78.15 73.23-19.39 7.05-39.19 9.89-59.64 8.8-22.53-1.21-43.53-7.84-63.29-18.58-.97-.53-1.69-1.53-3.2-2.95 7.81-10.13 14.77-20.98 23.64-29.95 4.75-4.81 12.53-7.23 19.39-9.18 6.79-1.93 14.15-1.79 21.23-2.76 14.47-1.99 28.96-3.9 43.37-6.23 13.76-2.23 27.45-4.89 41.15-7.48 4-.75 7.92-1.9 11.88-2.86l.21-1.49c-2.33-.65-4.63-1.71-7-1.88-13.94-1.04-27.89-2.17-41.85-2.71-15.64-.61-31.32-.47-46.96-1.05-2.41-.09-5.72-1.69-6.79-3.61-.85-1.51.52-5.01 1.9-6.91 7.96-11.05 16.5-21.69 24.28-32.86 5.31-7.62 12.72-10.82 21.24-12.46 15.31-2.94 30.69-5.53 45.94-8.77 12.94-2.75 25.73-6.19 38.56-9.43 1.48-.37 2.77-1.46 4.15-2.21-.09-.54-.19-1.08-.28-1.61-5.95-1.05-11.86-2.51-17.86-3.07-17.39-1.63-34.83-2.85-52.23-4.34-4.53-.39-5.67-3.83-2.7-7.91 7.92-10.88 16.09-21.58 23.83-32.58 12.87-18.3 25.47-36.79 38.17-55.22.25-.36.21-.91.31-1.38-.3-.33-.61-.66-.91-.99z"/></svg>