<svg xmlns="http://www.w3.org/2000/svg" viewBox="0 0 500 500"><path d="M386.56 97.47c5.74 2.15 6.67 4.02 5.07 10.74-3.12 13.1-9.85 24.42-17.79 35.04-23.25 31.08-53.97 52.77-88.75 68.86-15.04 6.96-30.88 12.19-46.35 18.21-.67.26-1.32.56-1.95 1.6 5.68.5 11.35 1.2 17.04 1.43 5.7.22 11.42.01 17.13-.1 22.1-.46 42.77-6.81 62.92-15.33 3.3-1.39 6.75-2.45 10.19-3.46 1.02-.3 3.04-.24 3.2.18.41 1.08.5 2.79-.11 3.67-2.89 4.19-5.74 8.48-9.17 12.22-24.35 26.53-55.08 42.55-88.99 52.98-12.41 3.82-25.17 6.49-37.44 9.6 21.95 3.89 44.25 4.4 66.55-.96 4.62-1.11 9.5-1.26 14.27-1.5 1.43-.07 3.64.67 4.17 1.72.5.98-.3 3.38-1.31 4.24-6.37 5.43-12.47 11.42-19.58 15.69-19.54 11.75-41.19 17.79-63.63 20.84-11.58 1.57-23.33 1.89-34.97 3.1-1.86.19-4.02 1.74-5.23 3.3-13.19 16.93-25.97 34.19-39.44 50.9-4.74 5.88-10.97 10.6-16.74 15.6-2.37 2.05-4.94 1.93-6.34-1.53v-13.55c.91-8.63 1.63-17.28 2.77-25.88 4.65-35.09 11.16-69.82 20.73-103.91 7.29-25.99 15.93-51.45 29.48-75.04 10.02-17.44 23.85-29.96 43.41-35.46 13.67-3.84 27.37-7.73 41.24-10.75 28.4-6.17 56.65-12.53 83.73-23.58 17.39-7.1 35.42-12.63 53.17-18.86h2.71z"/></svg>