<svg xmlns="http://www.w3.org/2000/svg" viewBox="0 0 500 500"><path d="M109.82 271.77c1.55-8.98 2.61-18.08 4.73-26.92 5.93-24.7 18.72-45.6 36.35-63.72 3.01-3.09 4.78-2.67 7.53.37 17.15 18.93 37.68 32.36 62.85 38.29 2.45.58 5.45 3.17 6.3 5.51 18.66 51.36 16.39 101.85-8.14 150.76-5.38 10.73-13.68 20-20.61 29.95-1.64 2.36-3.53 2.59-6.1 1.37-45.11-21.51-72.14-56.84-81.11-105.98-.7-3.85-1.2-7.74-1.8-11.6v-18.02zM259.52 293.24c-.96-23.98 5.1-46.61 12.82-68.9.66-1.92 3.36-3.94 5.46-4.42 25.18-5.77 45.74-19.12 63.14-37.82 4.28-4.6 4.32-4.66 8.73-.03 29.85 31.41 43.74 68.71 39.01 111.86-5.66 51.69-32.89 88.85-79.17 112.29-4.2 2.13-6.93 2.05-10.34-2.03-20.25-24.26-32.47-51.96-36.71-83.19-1.25-9.21-1.97-18.5-2.93-27.75zM290.51 145.22c11.48 5.28 22.26 10.24 33.85 15.56-19.87 23.22-43.53 35.5-72.87 35.84-30.38.35-55.25-11.51-75.43-34.93 10.19-7.57 21.69-11.32 33.4-15.98-1.67-2.48-2.88-4.44-4.25-6.29-6.65-9.02-13.37-17.97-19.99-27.01-2.64-3.61-3.33-7.49-.66-11.43 2.3-3.39 5.86-4.89 9.48-3.55 2.74 1.02 5.33 3.35 7.15 5.74a1255.68 1255.68 0 0124.51 33.08c2.69 3.76 5.66 5.06 10.35 4.81 9.11-.5 18.29-.57 27.38 0 4.96.31 7.95-1.26 10.7-5.08 8.21-11.39 16.62-22.64 25.01-33.9 3.75-5.03 8.24-6.37 12.68-3.99 5.25 2.81 6.52 8.72 2.62 14.17-6.89 9.62-14.03 19.06-21.04 28.59-1 1.36-1.88 2.82-2.92 4.37z"/></svg>