<svg xmlns="http://www.w3.org/2000/svg" viewBox="0 0 500 500"><path d="M429.13 249.24c-19.86 10.86-38.96 21.29-58.05 31.74-8.75 4.79-17.38 9.79-26.27 14.29-3.38 1.7-3.56 3.54-2.61 6.69 4.8 15.88 9.44 31.8 14.11 47.71.31 1.06.43 2.18.78 4.01-12.61-3.63-24.63-7.1-36.66-10.56-5.26-1.52-10.61-2.78-15.74-4.63-3.59-1.3-5.26-.35-7.02 2.92-13.5 25-27.18 49.9-40.82 74.83-1.99 3.64-4.03 7.25-6.35 11.42-1.05-1.52-1.94-2.61-2.6-3.82-14.83-27.12-29.74-54.19-44.33-81.44-2.3-4.3-4.53-4.95-8.94-3.6-16.78 5.15-33.67 9.93-51.43 15.11 1.01-3.82 1.77-6.94 2.67-10.03 3.92-13.37 7.64-26.81 11.97-40.04 1.59-4.87.86-7.15-3.81-9.64-26.66-14.25-53.12-28.89-79.65-43.4-.72-.39-1.39-.87-2.81-1.76 6.14-3.41 11.83-6.62 17.56-9.75 22.16-12.11 44.29-24.27 66.53-36.22 3.5-1.88 4.63-3.56 3.34-7.68-5.25-16.78-10.07-33.69-15.04-50.55-.22-.75-.31-1.54-.66-3.31 19.84 5.72 39.04 11.25 58.61 16.89 16.01-29.24 31.94-58.34 48.37-88.37 16.38 29.92 32.36 59.08 48.42 88.42 19.45-5.61 38.48-11.09 58.78-16.94-2.26 7.81-4.14 14.41-6.08 21-3.22 10.98-6.31 22-9.82 32.89-1.2 3.72-.57 5.47 2.95 7.36 26.92 14.5 53.72 29.22 80.54 43.89 1.14.62 2.19 1.39 4.05 2.58zm-178.52 64.49c1.25-2.06 2.13-3.38 2.9-4.77 4.4-8.01 9.24-15.81 13.03-24.1 4.23-9.22 10.6-15.43 19.84-19.67 9.59-4.4 18.61-10.03 28.82-15.64-9.59-5.27-18.02-10.59-27.01-14.66-10.46-4.75-17.94-11.71-22.56-22.32-3.23-7.43-7.66-14.35-11.58-21.48-.93-1.7-1.99-3.34-3.43-5.75-5.87 10.75-11.7 20.6-16.69 30.86-3.66 7.51-8.63 12.97-16.33 16.4-6.5 2.9-12.61 6.68-18.87 10.12-3.83 2.11-7.61 4.31-12.21 6.92 12.67 6.93 24.56 13.17 36.14 19.94 3.22 1.88 6.2 4.94 8.09 8.17 6.76 11.58 13.01 23.46 19.86 35.99z"/></svg>