<svg xmlns="http://www.w3.org/2000/svg" viewBox="0 0 500 500"><path d="M252.08 391.25c-65.98 0-122.69-45.84-136.47-110.96-6.61-31.22-2.65-61.48 11.57-90.19 1.74-3.51 1.78-5.72-.98-9.04-15.51-18.7-13.09-45.76 5.17-62.42 17.32-15.8 44.71-15.1 61.92 1.79 2.48 2.44 4.41 3.1 7.73 1.79 34.14-13.47 68.36-13.27 102.51 0 3.18 1.24 5.12 1.09 7.78-1.5 13.98-13.57 30.58-17.25 48.66-10.18 17.75 6.93 27.19 20.89 28.68 39.73.93 11.71-2.82 22.42-10.58 31.3-2.7 3.09-2.56 5.28-.89 8.66 37.69 75.85-1.33 168.27-81.99 194.31-14 4.52-28.38 6.84-43.13 6.72zm.15-228.69c-52.17.15-94.24 42.39-94 94.4.24 52.03 42.27 93.77 94.19 93.55 51.95-.23 94.31-42.7 93.82-94.08-.49-52.36-42.21-94.01-94.01-93.87z"/></svg>