<svg xmlns="http://www.w3.org/2000/svg" viewBox="0 0 500 500"><path d="M155.56 74c8.23 1.9 16.74 3.02 24.65 5.83 33.09 11.72 55.15 34.54 66.36 67.82.15.44.25.9.34 1.35.03.14-.07.3-.21.84-8.79 3.56-16.66 9.27-19.99 18.42-2.81 7.75-6.89 12.2-14.6 15.28-5.15 2.05-9.18 7.32-13.2 11.62-1.88 2.01-3.39 3.14-6.21 3.13-34.28-.09-68.56 0-102.84-.19-2.46-.01-5.76-1.17-7.18-2.97-2.32-2.94.57-5.45 2.56-7.66 31-34.45 82.15-44.37 123.84-24.05 1.71.83 3.52 1.47 5.28 2.19.3-.38.6-.76.9-1.15-1.03-1.34-1.92-2.82-3.11-4.01-25.21-25.27-50.46-50.5-75.69-75.76-4.51-4.52-4.45-6.43.23-10.71h18.87zM225.38 443c-3.48-.63-7.04-1.06-10.41-1.92-8.77-2.23-12.1-6.77-10.98-13.48 1.66-10 2.92-20.05 4.38-30.3h76.88c.78 5.97 1.56 12.04 2.36 18.11.45 3.46.79 6.94 1.42 10.38 1.85 10.1-.92 13.66-13.64 17.21h-50.01zM362.2 74c5.21 3.22 5.84 6 1.9 9.95-24.97 25.04-49.99 50.02-75.01 75.01-.31.31-.75.5-1.11.73-13.82-10.88-14.82-11.24-34.4-12.28.35-1.36.55-2.67 1.03-3.87 15.76-39.36 44.46-62.44 86.51-68.71 1.06-.16 2.09-.55 3.14-.83h17.93zM295.64 198.99c1.53.81 2.99 1.87 4.61 2.38 46.8 14.8 76.75 59.5 73.44 107.05-.15 2.1-1.73 4.99-3.46 5.81-1.42.68-4.64-.56-6.06-1.96-30.24-30.02-60.35-60.18-90.47-90.33-.41-.41-.7-.93-1.29-1.74 10.23-4.2 17.63-11.07 22.03-21.01.09-.2.83-.11 1.26-.15l-.08-.06z"/><path d="M295.72 199.05c-.15-.74-.54-1.53-.42-2.23 2.92-17.03 2.75-18.5-4.36-33.35 8.8-4.62 18.17-7.6 27.93-9.03 36.94-5.42 68.61 5.14 94.75 31.92 1.1 1.12 2.21 2.27 3.08 3.56 2.45 3.59.89 7.38-3.36 8.13-1.53.27-3.13.18-4.7.18-35.85 0-71.7 0-107.55.04-1.82 0-3.64.45-5.45.71 0 .01.09.07.09.07zM194.23 203.55c-4.45 15.68-.98 28.79 9.97 40.08-1.14 1.25-2.04 2.32-3.02 3.3-21.45 21.47-42.92 42.92-64.37 64.4-2.16 2.17-4.64 4.94-7.58 2.88-1.86-1.3-3.01-4.6-3.22-7.1-3.52-42.79 25.88-88.52 65.98-102.94.56-.2 1.15-.32 2.24-.61zM209.74 382.31c1.6-11.64 3.15-22.9 4.72-34.38h65.61c1.32 11.32 2.66 22.75 4.02 34.38h-74.36zM220.74 296.77h54.15l4.02 35.09H215.9c1.6-11.6 3.2-23.18 4.84-35.09zM225.53 253.5c22.61.12 36.22-10.87 41.64-32.53.4.21.81.42 1.21.62 1.79 21.63 3.58 38.41 5.41 60.44h-51.58c1.1-11.03 2.19-17.18 3.32-28.53zM229.67 195.06c11.78.03 20.95 9.35 20.91 21.25-.03 11.77-9.35 20.95-21.25 20.91-11.78-.03-20.95-9.35-20.91-21.25.04-11.77 9.35-20.94 21.25-20.91zM237.68 180.26c2.07-10.19 10.88-16.72 21.76-16.51 9.88.19 18.84 8.11 20.43 18.06 1.72 10.74-4.4 20.48-15.57 24.3-3.87-13.56-12.53-22.43-26.62-25.85z"/></svg>