<svg xmlns="http://www.w3.org/2000/svg" viewBox="0 0 500 500"><path d="M249.15 74h2.53c.09.07.16.17.26.19 4.02 1.13 6.07 3.81 6.07 7.96 0 6.56.02 13.12-.02 19.68 0 .92.18 1.33 1.19 1.49 5.05.8 9.96 2.19 14.57 4.41 2.75 1.32 5.38 2.88 8.12 4.37 1.03-.99 2.14-2.04 3.24-3.11 4.81-4.62 9.58-9.29 14.45-13.85 3.13-2.93 7.84-2.67 10.76.4 2.87 3.02 2.78 7.83-.23 10.79-2.08 2.04-4.21 4.03-6.31 6.05-3.56 3.42-7.12 6.85-10.52 10.12 2.17 3.29 4.3 6.46 6.36 9.69.43.67.84.93 1.62.93 7.1-.03 14.19 0 21.29-.02 2.51 0 4.57.96 6.08 2.94 1.92 2.51 2.21 5.3.83 8.12-1.41 2.88-3.86 4.28-7.06 4.29-5.03.02-10.05 0-15.08 0h-1.44c.11.61.2 1.01.25 1.43.42 3.69 1.13 7.37 1.19 11.07.17 10.16.05 20.33.06 30.49.01 37.48.03 74.96.04 112.43 0 .73-.03 1.46-.03 2.19 0 1.09.56 1.71 1.6 1.93.3.06.61.08.91.08 6.52 0 13.04-.02 19.56-.04.22 0 .44-.04.82-.08v-1.38c-.02-7.63-.08-15.26-.07-22.9.03-17.41.1-34.83.14-52.24.01-4.41.03-8.83 1.41-13.09.3-.91.11-1.45-.54-2.09-3.61-3.55-7.18-7.14-10.76-10.73-2.25-2.26-3.04-4.94-2.1-8 1.6-5.21 8.08-7.13 12.21-3.55 2.26 1.95 4.29 4.17 6.41 6.28 1.14 1.13 2.25 2.27 3.42 3.46 3.97-3.87 8.5-6.58 13.69-8.25v-.85c0-4.6-.05-9.21.02-13.81.07-4.41 3.49-7.67 7.85-7.61 4.25.06 7.51 3.44 7.52 7.82v13.35c5.53.91 10.46 3 14.93 6.26 3.69-3.55 7.32-7.07 10.98-10.56 2.31-2.2 5.05-2.89 8.06-1.81 2.91 1.04 4.62 3.2 5.02 6.3.41 3.18-1.12 5.47-3.35 7.54-3.38 3.12-6.65 6.36-9.97 9.55-.4.38-.7.67-.35 1.35 2.75 5.35 4.01 11.06 3.9 17.08-.02 1.1 0 2.2 0 3.42h1.4c4.8 0 9.59-.02 14.39 0 3.12.02 5.42 1.49 6.84 4.24.4.77.59 1.64.88 2.46v2.07c-.06.09-.16.17-.18.27-1.12 4.23-3.78 6.29-8.14 6.29h-13.69c-.44 0-.89.04-1.37.07v24.94h15.09c4.27 0 7.06 2.21 8.1 6.36.02.1.12.18.18.27v2.07c-.06.13-.16.26-.19.4-.9 3.95-3.76 6.27-7.78 6.27H398.77v25.09H414.55c1.63 0 3.07.52 4.4 1.44 1.85 1.28 2.67 3.18 3.22 5.24v2.07c-.05.05-.13.1-.15.16-1.23 4.48-3.84 6.47-8.49 6.48-4.95 0-9.9.01-14.84-.01-.76 0-1.04.22-1.19.98-1.12 5.67-3.05 11.07-5.85 16.13-.38.69-.35 1.09.22 1.66 3.83 3.77 7.61 7.58 11.41 11.38 3.27 3.28 3.37 8.13.24 11.2-3.11 3.05-7.88 2.92-11.12-.33-3.53-3.52-7.05-7.05-10.57-10.58-.14.08-.26.11-.34.19-.26.23-.51.46-.76.7-8.12 7.62-17.63 12.48-28.57 14.56-5.96 1.13-11.99.94-18 1.05-6.83.13-13.66.03-20.48.03-1.3 0-2.61-.06-3.9.02-1.57.1-2.27.83-2.43 2.38-.05.46-.04.92-.04 1.38.07 12.43.16 24.85.2 37.28.01 3.98-2.48 7.14-6.23 8.1-.51.13-1.03.24-1.54.36h-2.99c-.36-.06-.72-.18-1.09-.18-3.72-.03-7.44-.04-11.16-.05-14.65-.02-29.3-.03-43.95-.04H201.9c-5.38 0-8.68-3.33-8.69-8.68-.01-10.7-.03-21.4-.04-32.1v-54.12h-4.31c-9.24 0-18.49.09-27.73-.04-3.93-.06-7.89-.37-11.79-.92-11.31-1.6-20.8-7.02-29.19-14.53-2.24-2.01-4.25-4.28-6.53-6.6-.22.28-.44.64-.74.94-3.46 3.48-6.92 6.97-10.42 10.41-2.36 2.32-5.19 2.92-8.26 1.72-5.21-2.03-6.53-8.59-2.56-12.61 4.45-4.5 8.93-8.97 13.43-13.42.62-.61.84-1.09.47-1.96a22.13 22.13 0 01-1.24-3.82c-.81-3.49-1.53-7.01-2.31-10.62h-1.11c-4.76 0-9.51.02-14.27 0-3.86-.02-6.81-2.28-7.73-5.83-.11-.43-.23-.86-.34-1.3v-1.15c.06-.13.16-.25.19-.39.71-4.17 3.69-6.7 7.89-6.7h15.11V242c-2.54 0-4.99.01-7.44 0-2.8-.02-5.61.09-8.39-.14-4.08-.34-7.04-3.98-6.77-8.02.27-4.12 3.53-7.21 7.64-7.22h14.99v-23.44h-1.28c-4.6 0-9.21.01-13.81 0-4.09-.01-7.34-3.17-7.55-7.3-.2-4.05 2.84-7.74 6.88-7.92 4.75-.2 9.51-.1 14.26-.12h1.56c0-1.64-.02-3.13 0-4.62.07-3.54.4-7.05 1.53-10.42.31-.92.09-1.44-.55-2.08-3.88-3.82-7.75-7.66-11.56-11.55-3.9-3.98-2.69-10.38 2.31-12.55 2.85-1.24 6.21-.63 8.41 1.56 3.34 3.33 6.65 6.68 10 10.05.37-.32.66-.57.94-.83 3.22-2.97 6.87-5.27 10.98-6.79.9-.33 1.19-.75 1.18-1.71-.04-4.87-.11-9.75.03-14.61.12-4.26 3.66-7.4 7.91-7.29 4.12.1 7.39 3.51 7.41 7.71v13.84c.57.1 1.06.19 1.54.28 7.23 1.29 13.51 4.43 18.63 9.74 6.74 6.98 9.69 15.49 9.74 25.06.07 12.54.05 25.09.05 37.63 0 13.16-.02 26.31-.04 39.47v1.37h22.83v-1.45c.01-33.14 0-66.28.07-99.43 0-3.44.51-6.87.79-10.31.07-.78.2-1.55.31-2.44h-1.53c-5.41 0-10.82.03-16.23 0-4.59-.03-7.85-3.34-7.83-7.85.02-4.26 3.43-7.49 7.93-7.49 7.29 0 14.58-.01 21.86.02.75 0 1.12-.24 1.53-.87 1.82-2.83 3.69-5.63 5.64-8.38.85-1.2 1.92-2.25 3.04-3.53-.39-.31-.76-.53-1.05-.83-4.46-4.44-8.91-8.88-13.34-13.35-2.12-2.14-2.81-4.72-1.97-7.61 1.64-5.65 8.6-7.42 12.83-3.25 5.02 4.96 10 9.96 14.97 14.98.56.57.92.6 1.64.23 2.9-1.47 5.77-3.07 8.81-4.15 3.49-1.24 7.14-2.01 10.74-2.92.94-.24 1.27-.6 1.26-1.61-.05-6.64-.04-13.27-.02-19.91.01-3.91 2.21-6.71 5.96-7.72.18-.05.34-.14.52-.22zm32.18 186.75c0-36.06 0-72.11-.02-108.17 0-1.13-.17-2.31-.56-3.37-1.36-3.71-5.21-5.76-9.17-5.02-3.77.71-6.51 4.09-6.51 8.08v83.77c0 44.26 0 88.53.03 132.79 0 1.27.24 2.63.75 3.78 1.55 3.57 5.36 5.41 9.09 4.57 3.82-.86 6.4-4.09 6.4-8.06v-108.4zm-44.15-.09V152.49c0-.57 0-1.16-.1-1.72-.78-4.16-4.57-7.13-8.58-6.75-4.45.43-7.54 3.84-7.54 8.34v216.79c0 .72.06 1.47.24 2.16a8.107 8.107 0 009 6c4.03-.55 6.97-3.99 6.97-8.15V260.65zm-96.87-35.86v-41.2c0-3.15-1.8-5.8-4.7-7-2.87-1.19-6.08-.55-8.3 1.6-1.85 1.79-2.35 4.03-2.35 6.49.01 26.31 0 52.63.02 78.94 0 2.49.07 4.99.35 7.46.85 7.52 3.25 14.5 7.87 20.57 7.07 9.27 16.85 13.29 28.16 14.09 3.01.21 6.05.07 9.08.07 5.75 0 11.51 0 17.26-.04 4.1-.03 7.49-3.32 7.57-7.29.1-4.39-2.99-7.97-7.27-8.04-6.33-.1-12.66 0-18.98.08-3.65.05-7.28.08-10.88-.64-7.33-1.47-12.63-5.46-15.51-12.46a30.535 30.535 0 01-2.32-11.65c-.04-13.66-.02-27.31-.02-40.97zm230.33 48.3h.23v-19.67c.02-8.17.06-16.34.07-24.51 0-4.41-3.26-7.82-7.47-7.84-4.52-.03-7.83 3.23-7.87 7.8-.05 5.29-.09 10.58-.12 15.87-.07 13.19-.13 26.38-.19 39.58-.02 3.72-.06 7.44-.06 11.16 0 5.06-.05 10.12.03 15.18.08 4.94-.33 9.81-1.87 14.52-2.44 7.47-7.28 12.3-15.32 13.16-4.3.46-8.65.43-12.97.56-3.83.12-7.67.02-11.5.26-3.86.24-6.78 3.86-6.65 7.9.12 3.84 3.33 7.33 7.09 7.27 8.54-.12 17.12-.01 25.62-.78 11.62-1.04 20.3-7.05 25.76-17.46 3.64-6.93 5.05-14.43 5.19-22.18.12-6.47.02-12.95.02-19.43v-21.4z"/></svg>