<svg xmlns="http://www.w3.org/2000/svg" viewBox="0 0 500 500"><path d="M252.84 413.63h-5.18c-7.75-2.62-10.72-8.11-10.44-16.15.34-9.92.08-19.86.08-29.79v-5.66c-1.31 1.2-2.09 1.89-2.83 2.62-3.9 3.88-7.73 7.84-11.7 11.65-4.25 4.08-10 4.94-14.93 2.42-8.09-4.12-9.63-14.34-3.04-21 10.17-10.28 20.47-20.44 30.61-30.75 1-1.01 1.81-2.72 1.82-4.11.12-16.73.08-33.46.07-50.19 0-.66-.19-1.33-.3-2.06-.47.2-.67.27-.86.37-12.61 7.26-25.05 14.85-37.91 21.64-6.2 3.28-10.32 7.21-10.99 14.38-.21 2.22-1.14 4.37-1.73 6.55-2.6 9.68-5.12 19.38-7.82 29.03-1.64 5.87-6.56 9.52-12.38 9.55-5.75.03-10.91-3.5-12.31-9.1-.63-2.49-.51-5.38.04-7.92 1.34-6.17 3.14-12.24 4.9-18.92-1.51.81-2.46 1.28-3.38 1.81-9.81 5.65-19.59 11.34-29.42 16.96-7.07 4.04-14.85 2.19-18.55-4.31-3.73-6.56-1.39-14.05 5.72-18.17 9.7-5.62 19.42-11.21 29.13-16.82.98-.57 1.94-1.17 2.91-1.75-.26-.42-.3-.55-.36-.56-6.03-1.63-12.07-3.22-18.09-4.89-7.95-2.2-12.09-9.62-9.54-17 2.33-6.75 9.14-9.96 16.88-7.9 13.64 3.62 27.26 7.34 40.93 10.84 1.55.4 3.66.12 5.05-.66 14.17-8.01 28.25-16.19 42.35-24.33.78-.45 1.5-1.02 2.35-1.61-.49-.41-.7-.65-.97-.8-14.84-8.58-29.67-17.19-44.56-25.66-1.04-.59-2.7-.59-3.92-.27-13.66 3.55-27.28 7.27-40.94 10.81-2.25.58-4.73.98-6.98.66-6.23-.88-10.67-6.09-10.93-12.23-.25-6.03 3.72-11.32 9.99-13.07 6.18-1.73 12.4-3.32 19.39-5.17-1.62-.97-2.58-1.57-3.56-2.14-9.99-5.77-20.03-11.46-29.96-17.32-6.42-3.79-8.43-11.45-4.88-17.68 3.55-6.21 11.12-8.28 17.69-4.75 3.13 1.68 6.18 3.52 9.27 5.3 7.92 4.56 15.84 9.12 24.17 13.92-.21-1.22-.29-1.95-.47-2.64-1.49-5.63-3.07-11.23-4.48-16.87-1.81-7.25 2.03-13.95 9.02-15.95 6.97-1.99 13.93 1.98 15.97 9.39 3.8 13.82 7.47 27.67 11.11 41.53.56 2.12 1.57 3.52 3.52 4.63 12.75 7.24 25.43 14.6 38.13 21.93 2.11 1.22 4.23 2.43 6.65 3.81.07-.94.14-1.44.14-1.94 0-16.95.05-33.89-.07-50.84 0-1.29-.86-2.84-1.8-3.8-10.08-10.22-20.27-20.33-30.39-30.51-5.59-5.63-5.81-13.54-.61-18.8 5.16-5.22 13.18-5.08 18.82.4 3.87 3.76 7.64 7.63 11.46 11.43.69.68 1.43 1.31 2.61 2.39 0-12.46.22-24.11-.08-35.75-.21-7.95 2.85-13.26 10.44-15.83h5.18c7.59 2.57 10.68 7.88 10.44 15.83-.31 10.03-.07 20.07-.07 30.11v5.66c1.31-1.21 2.1-1.89 2.83-2.62 3.83-3.81 7.62-7.64 11.46-11.44 3.69-3.65 8.1-4.91 13.07-3.45 9.61 2.83 12.38 14.46 5.14 21.81-10.15 10.31-20.46 20.44-30.6 30.75-1 1.01-1.81 2.72-1.82 4.11-.12 16.73-.08 33.46-.07 50.19 0 .67.17 1.33.27 2.06.47-.17.69-.22.87-.32 14.57-8.39 29.13-16.83 43.74-25.15 1.94-1.11 2.98-2.47 3.54-4.61 3.64-13.86 7.32-27.71 11.12-41.53 2.04-7.43 8.94-11.44 15.91-9.48 7.13 2 10.92 8.76 9.02 16.22-1.44 5.64-3 11.24-4.48 16.87-.16.62-.12 1.3-.21 2.32 1.04-.6 1.69-.98 2.33-1.35 10.18-5.87 20.35-11.77 30.56-17.59 5.16-2.94 10.61-2.58 14.84.82 7.14 5.73 6.45 16.51-1.59 21.34-9.98 5.99-20.14 11.68-30.22 17.52-.93.54-1.81 1.17-3.12 2.03 6.61 1.77 12.6 3.16 18.44 5.03 2.58.82 5.24 2.21 7.17 4.06 4.06 3.88 4.56 10.02 1.83 14.94-2.78 5-8.4 7.73-13.99 6.3-14.3-3.67-28.52-7.6-42.82-11.25-1.55-.39-3.66-.1-5.06.69-14.08 7.95-28.07 16.07-42.07 24.16-.88.51-1.7 1.12-2.66 1.77.5.41.72.65.99.8 14.84 8.58 29.66 17.19 44.56 25.67 1.05.6 2.71.64 3.93.32a3679.3 3679.3 0 0041.21-11.04c4.56-1.25 8.79-.95 12.56 2.03 3.85 3.05 5.63 7.14 4.87 11.99-.81 5.21-3.77 8.94-8.92 10.48-6.45 1.92-12.97 3.6-20.14 5.56 1.53.91 2.5 1.51 3.49 2.08 9.9 5.72 19.84 11.36 29.68 17.16 6.63 3.91 8.7 11.59 5.06 17.88-3.63 6.27-11.33 8.23-18.01 4.5-4.99-2.79-9.91-5.7-14.86-8.55-5.93-3.42-11.87-6.83-18.28-10.53.26 1.32.36 2.04.54 2.74 1.49 5.62 3.07 11.23 4.48 16.87 1.79 7.22-2.12 13.95-9.1 15.92-6.96 1.96-13.88-2.05-15.92-9.47-3.83-13.92-7.45-27.9-11.34-41.8-.43-1.54-1.73-3.24-3.1-4.05-13.93-8.21-27.96-16.25-41.97-24.33-.9-.52-1.84-.95-2.79-1.44-.17.4-.31.59-.31.77-.02 17.38-.06 34.75.05 52.13 0 1.18.91 2.58 1.8 3.48 10.17 10.28 20.45 20.45 30.62 30.73 5.39 5.45 5.47 13.41.37 18.57-5.07 5.13-13.08 5.09-18.57-.21-4.11-3.97-8.1-8.08-12.16-12.11-.54-.53-1.2-.94-2.15-1.66 0 12.1-.25 23.64.08 35.17.23 8.04-2.7 13.53-10.45 16.16z"/></svg>