<svg xmlns="http://www.w3.org/2000/svg" viewBox="0 0 500 500"><path d="M416.88 200.2v.91c-.6 1.44-1.07 2.94-1.82 4.31-7.38 13.51-14.82 26.99-22.22 40.49-1.3 2.37-2.53 4.76-3.82 7.19.45.25.8.44 1.15.62 5.17 2.59 10.36 5.14 15.5 7.79 1.32.68 2.59 1.53 3.68 2.5 1.86 1.67 2.1 3.73.64 5.7-.87 1.18-1.97 2.27-3.17 3.18-20.31 15.34-40.66 30.65-60.99 45.98-3.65 2.75-7.25 5.56-11 8.43.47.27.81.47 1.16.66 8.51 4.68 17.03 9.33 25.52 14.04 3.79 2.1 4.54 3.66 3.81 7.34-.23 1.13-2.23 2.99-3.49 3.19-11.01 1.73-22.02 3.48-33.03 5.18-13.06 2.02-26.14 3.97-39.2 5.99-3.9.6-6.59 3.57-6.69 7.2-.09 3.19-.19 6.37-.25 9.56-.15 9.07-.22 18.15-.47 27.22-.05 1.78-.64 3.57-1.15 5.32-.38 1.31-1.43 2.21-2.84 2.68-.97.32-1.95.67-2.95.86-1.52.3-3.07.47-4.61.69h-1.75c-.35-.07-.7-.18-1.05-.21-4.17-.3-6.8-2.35-7.48-6.12-.33-1.82-.31-3.7-.31-5.56 0-24.31.04-48.63.07-72.94 0-.11.01-.23 0-.34-.12-1.02.4-1.74 1.26-2.32.9-.61 1.85-1.18 2.66-1.88 7.96-6.79 16.02-13.49 23.82-20.42 8.16-7.26 16.08-14.74 24.1-22.14 1.65-1.52 2.5-3.39 2.63-5.51.33-5.36-4.43-11.18-10.41-12.78-2.1-.56-4.02-.31-5.71 1.05-2.31 1.86-4.69 3.64-6.94 5.56-10.03 8.55-20.02 17.14-30.02 25.71-1.4 1.2-2.81 2.38-4.22 3.58l-.33-.14v-2.93c-.01-10.18-.03-20.36-.04-30.55 0-7.56-.02-15.12 0-22.68 0-1.9-.72-3.46-2.17-4.8-4.96-4.56-13.77-5.03-19.46-1.04-2.37 1.66-3.6 3.82-3.54 6.57.07 3.42.12 6.83.17 10.25.18 13.59.37 27.19.53 40.78.01.89-.11 1.79-.18 2.85-.47-.31-.74-.47-.99-.66-8.79-6.68-17.59-13.35-26.36-20.05-4.91-3.75-9.81-7.51-14.66-11.33-2.5-1.97-5.12-2.1-7.97-.83-2.36 1.05-4.29 2.61-5.91 4.46-2.84 3.24-4.03 10.48 1.37 14.17 1.26.86 2.45 1.83 3.61 2.8 16.71 14.03 33.41 28.06 50.09 42.12.41.35.7 1.03.7 1.55-.02 3.23-.09 6.45-.24 9.68-.08 1.66-.03 3.41-.59 4.95-1.43 3.94-3.48 7.64-6.07 11.06-2.09 2.76-4.82 4.81-8.51 5.59-2.82.59-5.62.28-8.41-.2-19.79-3.41-39.59-6.8-59.38-10.22-3.26-.56-6.55-1.07-9.75-1.83-2.72-.65-4.04-2.55-4.11-5.09-.07-2.45 1.46-3.95 3.54-5.11 3.01-1.68 6.07-3.31 9.09-4.97 6.01-3.31 12.01-6.64 18.1-10.01-.38-.3-.69-.55-1.01-.79-19.22-14.52-38.45-29.04-57.67-43.57-4.84-3.66-9.71-7.27-14.47-11.01-4.15-3.25-3.8-6.84.77-9.59.42-.25.85-.48 1.28-.7l8.4-4.23c2.83-1.42 5.66-2.84 8.56-4.3-.57-1.11-1.08-2.14-1.64-3.15-8.23-15.03-16.47-30.05-24.69-45.09-.52-.94-.96-1.95-1.24-2.97-.84-3.05.66-5.15 4.02-5.77 2.01-.37 3.95-.19 5.86.51 12.21 4.49 24.42 8.97 36.63 13.45 2.45.9 4.92 1.77 7.44 2.68.26-.48.44-.81.61-1.15 1.72-3.37 3.4-6.75 5.18-10.1.9-1.7 1.84-3.42 3.04-4.94 1.47-1.85 3.84-2.37 6.13-1.44 1.23.5 2.41 1.22 3.42 2.03 13.98 11.3 27.92 22.63 41.88 33.95.98.79 1.98 1.57 3.14 2.5 0-.68.03-1.13 0-1.56-.91-10.29-1.83-20.58-2.75-30.87-.88-9.76-1.78-19.52-2.66-29.28-.9-9.95-1.83-19.9-2.67-29.85-.2-2.37-.31-4.79-.05-7.14.31-2.8 2.21-4.06 5.32-4 .45 0 .93.01 1.36.13 3.11.82 6.22 1.63 9.31 2.51 3.63 1.04 7.24 2.15 10.93 3.25.28-.62.52-1.13.75-1.65 7.71-17.4 15.42-34.8 23.1-52.21 1.04-2.36 2.45-4.29 5.34-4.92h1.75c2.68.56 4.21 2.2 5.21 4.44 6.5 14.7 13.01 29.39 19.53 44.08 1.51 3.4 3.03 6.8 4.57 10.25.48-.14.87-.25 1.26-.36 5.44-1.63 10.87-3.32 16.34-4.86 1.56-.44 3.26-.61 4.89-.6 1.94.01 3.51.99 4.05 2.71.46 1.5.66 3.13.6 4.69-.12 3.07-.5 6.13-.77 9.2l-2.4 26.79-2.1 23.27c-.72 7.95-1.44 15.89-2.15 23.84-.35 3.93-.68 7.86-1.05 12.08.94-.67 1.68-1.14 2.35-1.68 10.69-8.67 21.37-17.35 32.06-26.03 3.73-3.03 7.39-6.13 11.22-9.05 4.33-3.31 7.71-2.68 10.43 1.82 1.04 1.72 1.9 3.54 2.83 5.32 1.54 2.93 3.07 5.87 4.63 8.84.44-.15.79-.27 1.13-.39 10.85-4.01 21.71-8.02 32.56-12.02 4.08-1.5 8.13-3.08 12.27-4.45 3.23-1.07 5.94-.08 7.47 2.46.35.58.54 1.24.81 1.87z"/></svg>