<svg xmlns="http://www.w3.org/2000/svg" viewBox="0 0 500 500"><path d="M80.25 236.54v-7.93c2.19-9.69 9.16-14.46 18.29-16.95-1.38-2.16-2.53-3.77-3.5-5.48-4.98-8.82-4.12-17.74 3.2-24.73 3.75-3.58 8.2-6.84 12.9-8.95 18.32-8.22 37.41-8.19 56.59-3.6 6.69 1.6 13.16 4.1 19.74 6.2.02-.03.13-.13.13-.22-.02-.65-.06-1.31-.11-1.96-1.11-14.88 0-29.53 5.19-43.61 6.42-17.46 15.05-33.14 34.31-39.52h7.27c6.52 2.02 11.32 6.26 14.94 11.96 2.47-2.63 4.44-5.32 6.98-7.27 2.53-1.95 5.64-3.16 8.49-4.69h7.27c12.2 3.7 20.42 12.1 26.63 22.75 8.44 14.46 12.75 30.11 13.08 46.84.11 5.35.02 10.71.02 16.06.62-.24 1.63-.63 2.63-1.04 17.98-7.49 36.57-10.37 55.9-7.23 11.37 1.85 22.04 5.46 30.35 13.96 7.43 7.6 8.4 16.45 3 25.62-.93 1.57-1.95 3.09-3.12 4.94 9.29 2.51 16.06 7.33 18.26 16.92v7.93c-10.52 34.14-37.79 47.82-69.22 56.69 1.1 1.32 2.22 2.66 3.33 4 12.71 15.25 20.8 32.58 23.2 52.35 1.28 10.53.74 20.92-4.48 30.53-4.82 8.88-12.42 12.44-22.35 10.53-2.1-.4-4.17-.97-6.56-1.53 0 1.77.07 3.2-.01 4.61-.59 10.05-5.57 16.58-14.7 19.28-1.67.49-3.37.91-5.05 1.36h-8.59c-2.56-.58-5.14-1.05-7.66-1.75-18.21-5.05-32.82-15.65-44.93-29.81-4.62-5.4-8.48-11.45-12.77-17.31-.53.87-1.17 1.87-1.76 2.9-9.93 17.25-23.56 30.71-41.61 39.18-6.56 3.08-13.87 4.57-20.84 6.79h-8.59c-.72-.22-1.43-.51-2.17-.65-10.68-2.03-16.61-8.52-17.56-19.3-.15-1.71-.16-3.42-.25-5.35-1.55.41-2.81.74-4.07 1.08-11.36 3.08-20.24-.51-25.07-11.24-2.38-5.29-3.96-11.31-4.29-17.09-1.18-20.54 5.57-38.94 16.83-55.83 2.97-4.45 6.42-8.57 9.72-12.94-3.74-1.03-7.41-1.78-10.89-3.03-26.85-9.67-49.48-23.98-58.1-53.47zm181.42 37.19c5.47 1.78 10.33 3.53 15.3 4.93 9.72 2.74 18.08-4.91 15.9-14.48-1.06-4.67-4.16-7.55-8.62-9.05-4.83-1.62-9.68-3.21-14.89-4.93 3.2-4.42 6.04-8.26 8.8-12.15 4.61-6.5 3.76-13.89-2.04-18.15-5.77-4.24-13.09-2.75-17.87 3.68-2.9 3.91-5.76 7.85-8.91 12.15-3.35-4.58-6.36-8.77-9.44-12.9-2.83-3.79-6.65-5.71-11.37-5.19-9.34 1.04-14.01 11.14-8.81 19.12 2.93 4.5 6.21 8.78 9.26 13.06-.46.51-.53.66-.64.7-4.39 1.49-8.77 2.98-13.17 4.45-7.6 2.54-11.3 8.9-9.17 15.8 2.1 6.8 8.96 9.96 16.6 7.6 4.67-1.44 9.31-2.96 14.44-4.6 0 5.44-.05 10.46.01 15.48.09 7.56 5.35 13.08 12.34 13.05 7.01-.03 12.18-5.53 12.26-13.14.05-4.91.01-9.82.01-15.44zm-33.16 30.35c.11-6.54-3.2-11.34-8.06-13.12-5-1.84-10.51-.4-13.94 4.1-5.04 6.62-9.89 13.4-14.72 20.18-4.42 6.22-3.44 13.7 2.2 17.8 5.75 4.19 13.02 2.9 17.61-3.27 4.81-6.46 9.6-12.94 14.15-19.58 1.49-2.17 2.21-4.87 2.75-6.12zm81.26 18.11c-.33-1.05-.53-3.42-1.7-5.11-5.37-7.73-10.77-15.47-16.63-22.82-3.97-4.98-11.26-5.35-16.29-1.61-5.01 3.72-6.69 10.8-3.14 16.08 5.17 7.7 10.68 15.19 16.35 22.52 3.19 4.12 8.58 5.18 13.39 3.4 4.72-1.75 7.9-6.26 8.02-12.46zm17.07-102.85c-.2.02-.63-.03-1.01.09-9.6 3.09-19.35 5.79-28.72 9.45-5.72 2.23-7.82 9.31-5.63 15.01 2.12 5.53 8.22 9.21 13.85 7.59 9.04-2.6 18.01-5.5 26.83-8.74 5.56-2.04 8.36-8.21 7.05-13.74-1.36-5.78-6.28-9.68-12.37-9.65zm-154.52 0c-6.79.04-11.82 4.24-12.96 10.17-1.11 5.76 2.38 11.73 8.42 13.81 7.73 2.67 15.53 5.17 23.34 7.6 7.34 2.29 14.09-.9 16.29-7.53 2.27-6.8-1.39-13.46-8.89-15.97-7.37-2.46-14.78-4.82-22.2-7.16-1.55-.49-3.18-.73-4.02-.92zm64.73-31.66c0 4.23-.08 8.47.02 12.7.16 7.01 5.38 12.34 12.07 12.48 6.8.15 12.39-5.29 12.5-12.45.13-8.46.14-16.93 0-25.39-.12-7-5.5-12.22-12.26-12.23-6.73-.01-12.09 5.23-12.3 12.2-.13 4.23-.02 8.46-.03 12.7z"/></svg>