<svg xmlns="http://www.w3.org/2000/svg" viewBox="0 0 500 500"><path d="M84.66 272.3c4.26 3.69 8.18 7.07 12.1 10.47 1.31 1.13 2.55 2.35 3.9 3.43 3.34 2.67 9.23.89 13.44-3.99 4.21-4.89 5.14-11.03 1.93-13.85-6.25-5.49-12.58-10.9-18.96-16.25-1.19-1-1.53-2.07-.27-4.19 3.75-6.33 7.46-12.68 11.12-19.04 3.42-5.92 6.76-11.87 10.5-18.44 1.77 1.53 3.35 2.91 4.94 4.27 6.31 5.43 12.69 10.78 18.92 16.3 3.69 3.27 9.62 1.99 14.2-3.32 4.59-5.31 4.97-11.35 1.21-14.52-7.54-6.35-14.99-12.8-22.36-19.35-3.52-3.12-3.44-3.29 1.06-9.19 6.64-8.7 13.34-17.36 20.03-26.03.42-.55.95-1.03 1.75-1.9 2.75 2.38 5.46 4.71 8.16 7.06 6.23 5.42 12.42 10.89 18.71 16.25 3.26 2.77 9.2.95 13.42-3.92 4.3-4.96 5.15-11.14 1.85-14.01-8.26-7.15-16.48-14.24-24.76-21.36-.3-.26 2.92-4.75 4.87-5.85 6.92-3.87 15.34-4.34 22.42-2.92 9.75 1.95 21.71 7.04 29.46 12.99 4.16 3.19 11.84 9.41 16.35 21.13 4.87 12.67-2.15 30.09-11.42 44.85-2.64 4.2-6.62 7.89-10.11 11.7-.4.44-1.85.48-2.31.11-3.63-2.93-7.14-5.99-10.67-9.04-4.28-3.71-8.47-7.51-12.81-11.14-3.27-2.74-9.22-.88-13.43 4.02-4.21 4.9-5.12 11.01-1.9 13.83 7.11 6.24 14.31 12.37 21.46 18.57.84.73 1.57 1.59 2.74 2.77-5.2 5.22-10.1 10.3-15.17 15.17-5.09 4.89-10.36 9.53-15.51 14.33-1.93 1.8-3.12 2.38-4.66.91-4.85-4.65-10.02-8.96-15.18-13.25-3.31-2.76-9.57-.71-13.67 4.29-4.22 5.15-4.71 11.28-1.25 14.05 3.48 2.78 6.84 5.71 10.22 8.6.44.38.73.94 1.3 1.69-8.98 7.43-17.84 14.66-26.61 22.06-17.49 14.77-36.09 25.43-54.75 36.02-9.52 3.72-14.32-1.04-14.4-7-.14-10.17 4.87-20.24 9.46-31.28 4.15-9.97 8.18-19.95 12.29-29.93.61-1.48 1.37-2.95 2.38-5.11zM268.9 133.96c3.99-.98 7.36-2.04 10.59-2.56 11.37-1.82 21.44-.67 29.56 4.22 6.88 4.15 12.04 10.89 14.12 14.39 1.93 3.25 3.48 7.31 3.82 11.45.49 1.84-1.57 4.71-4.38 6.25-6.78 3.71-13.54 6.27-20.06 6.94-5.38.56-10.86 1.17-15.85.75-5.14-.43-9.79-2.03-14.56-3.27-.6-.16.15-8.26-2.98-19.7-2.03-7.42-8.24-17.42-13.35-22.57-3.83-3.86-14.21-10.66-28.56-15.45-11.7-3.9-28.62-3.35-28.64-4.06-.53-14.88-2.74-30.67 4.28-47.6.95-2.28 4.87-8.77 7.65-8.76 1.76 0 3.65.27 4.96 1.09 5.22 3.3 9.71 7.39 13.59 12.3 4.35 5.5 7.84 11.6 9.74 19.02.74 2.9.83 6.22 1.16 9.38.16 1.54.22 3.13.32 4.65 2.23-3.07 4.15-6.22 6.56-8.92 3.21-3.61 6.59-7.49 10.29-10.1 4.13-2.9 8.72-4.93 13.07-6.58 6.69-2.53 13.25-3.97 19.28-3.38 4.45.44 6.52 1.65 6.95 6.9.39 4.73 0 8.77-.97 14.62-1.1 6.58-2.79 13.18-6.5 20.01-4.14 7.62-10.67 13.07-17.22 18.37-.86.7-1.66 1.52-2.84 2.6zM268.7 399.78c-11.37-26.68-30.76-44.74-59.52-53.44.59-1.13 1.17-2.34 1.83-3.52 15.39-27.51 36.81-49.96 62.92-68.34 25.41-17.88 51.74-29.36 79.09-32.99 4.72-.63 5.05-.31 4.84 4.2-1.41 30.22-9.77 60.4-28.37 90.38-15.32 24.69-35 45.66-59.06 62.69-.51.36-1.06.62-1.75 1.02zM251.49 413.46c-24.51 14.87-48.82 23.02-73.95 26.51.52-25.08 5.99-50.3 18.42-76.56 27.09 7.75 45.07 24.58 55.54 50.05zM443.58 231.79c-1.63 1.61-3.27 3.22-4.9 4.83-.93.64-1.9 1.21-2.77 1.91-16.54 13.44-40.16 16.04-57.69 5.98-4.38-2.51-8.17-6.02-12.16-9.15-11.48-8.98-18.06-20.99-18.52-35.85-.6-19.4 6.7-35.78 23.38-47.82 2.84-2.05 5.1-1.6 7.32.39 14.24 12.72 19.84 28.8 16.34 48.41-.31 1.75-.72 3.49-1.14 5.5 1.05-.34 1.73-.55 2.39-.79 20.05-7.17 37.72-4.04 53 9.28 3.11 2.71 3.36 4.8 1 8.43-1.98 3.02-4.16 5.92-6.26 8.87z"/></svg>