<?xml version="1.0" encoding="UTF-8" standalone="no"?>
<!-- Created with Inkscape (http://www.inkscape.org/) -->

<svg
   width="83.303955mm"
   height="87.29615mm"
   viewBox="0 0 83.303955 87.29615"
   version="1.1"
   id="svg1"
   xmlns="http://www.w3.org/2000/svg"
   xmlns:svg="http://www.w3.org/2000/svg">
  <defs
     id="defs1" />
  <g
     id="layer1"
     transform="translate(-74.177575,-93.523402)"
     style="display:inline">
    <circle
       style="display:none;fill-opacity:0.501401;stroke-width:0.264583"
       id="path1"
       cx="115.79691"
       cy="137.17482"
       r="33.084831" />
    <path
       style="display:none;fill-opacity:0.501401;stroke-width:0.264583"
       d="m 93.648232,109.94475 c -4.995673,3.22467 -12.404787,4.44108 -14.870895,9.85159 -2.831211,6.21152 2.277117,13.48974 2.662256,20.3052 0.374281,6.62331 -3.841213,14.25914 -0.347644,19.89858 3.308108,5.34006 11.379899,5.32508 17.017303,8.09627 5.634908,2.76996 10.518178,8.47691 16.796908,8.52572 6.46099,0.0502 11.69552,-5.50491 17.4188,-8.50341 6.00547,-3.14635 14.19014,-4.17199 17.7406,-9.94775 3.08673,-5.02137 0.55825,-11.77564 0.75294,-17.66666 0.25261,-7.64362 4.3439,-16.30315 0.53865,-22.93706 -3.48128,-6.0691 -12.2143,-6.82889 -18.36234,-10.16878 -6.34119,-3.44481 -11.89486,-10.438842 -19.10668,-10.179942 -7.96433,0.285914 -13.5442,8.404212 -20.239898,12.726242 z"
       id="path3" />
    <path
       style="display:inline;fill-opacity:0.501401;stroke-width:0.292279"
       d="m 91.630152,107.52099 c -5.54561,3.54488 -13.77035,4.88208 -16.507937,10.82983 -3.142881,6.82831 2.527791,14.82922 2.955329,22.32144 0.415483,7.28098 -4.26407,15.67501 -0.385915,21.87442 3.672278,5.87031 12.632643,5.85385 18.890631,8.90021 6.25523,3.04501 11.67606,9.31863 18.64597,9.37229 7.17226,0.0552 12.98302,-6.05152 19.33635,-9.34776 6.66657,-3.45878 15.75224,-4.58626 19.69356,-10.93553 3.42653,-5.51998 0.61969,-12.94492 0.83582,-19.4209 0.28042,-8.40259 4.82209,-17.92199 0.59795,-25.21463 -3.86452,-6.67172 -13.5589,-7.50698 -20.38374,-11.17849 -7.03926,-3.78688 -13.20429,-11.475388 -21.21002,-11.19078 -8.84108,0.314304 -15.035212,9.23872 -22.467998,13.9899 z"
       id="path3-8" />
  </g>
</svg>
