<?xml version="1.0" encoding="UTF-8" standalone="no"?>
<!-- Created with Inkscape (http://www.inkscape.org/) -->

<svg
   width="111.24944mm"
   height="20.159124mm"
   viewBox="0 0 111.24943 20.159124"
   version="1.1"
   id="svg1"
   xmlns:inkscape="http://www.inkscape.org/namespaces/inkscape"
   xmlns:sodipodi="http://sodipodi.sourceforge.net/DTD/sodipodi-0.dtd"
   xmlns="http://www.w3.org/2000/svg"
   xmlns:svg="http://www.w3.org/2000/svg">
  <sodipodi:namedview
     id="namedview1"
     pagecolor="#ffffff"
     bordercolor="#000000"
     borderopacity="0.25"
     inkscape:showpageshadow="2"
     inkscape:pageopacity="0.0"
     inkscape:pagecheckerboard="0"
     inkscape:deskcolor="#d1d1d1"
     inkscape:document-units="mm">
    <inkscape:page
       x="-4.2083589e-22"
       y="0"
       width="111.24943"
       height="20.159124"
       id="page2"
       margin="0"
       bleed="0" />
  </sodipodi:namedview>
  <defs
     id="defs1" />
  <g
     inkscape:label="Layer 1"
     inkscape:groupmode="layer"
     id="layer1"
     transform="translate(-82.256118,-182.67635)">
    <path
       style="stroke-width:0.264583"
       d="m 193.50555,202.83547 -96.198732,-2.43556 c -6.603106,-0.40888 -13.325143,-3.11068 -11.674662,-8.64483 1.318998,-4.94743 9.538833,-8.05028 13.411042,-5.74825 3.268352,1.94305 3.793562,4.30009 2.262002,6.02172 -1.451835,1.63202 -6.618702,4.03731 -8.723438,1.88167 -1.225005,-1.25464 -0.977216,-2.38083 3.415947,-4.7975 0,0 -7.779483,0.32802 -6.167401,5.14379 1.547505,4.62287 9.807928,3.46689 13.554682,-0.16889 3.50644,-3.40264 1.12256,-8.29771 -2.86518,-10.36942 -3.860179,-2.00546 -13.486903,-1.7689 -17.737067,6.65779 -2.086823,5.34983 1.934226,12.09864 13.747708,12.45948 z"
       id="path1"
       sodipodi:nodetypes="cccssscsssccc"
       inkscape:transform-center-y="0.66509267"
       inkscape:transform-center-x="-0.21328753" />
  </g>
</svg>
