<?xml version="1.0" encoding="UTF-8" standalone="no"?>
<!-- Created with Inkscape (http://www.inkscape.org/) -->

<svg
   width="78.981674mm"
   height="82.329094mm"
   viewBox="0 0 78.981675 82.329094"
   version="1.1"
   id="svg1"
   xmlns="http://www.w3.org/2000/svg"
   xmlns:svg="http://www.w3.org/2000/svg">
  <defs
     id="defs1" />
  <g
     id="layer1"
     transform="translate(-76.415698,-96.405735)"
     style="display:inline">
    <circle
       style="display:none;fill-opacity:0.501401;stroke-width:0.264583"
       id="path1"
       cx="115.79691"
       cy="137.17482"
       r="33.084831" />
    <path
       style="display:none;fill-opacity:0.501401;stroke-width:0.264583"
       d="m 93.648232,109.94475 c -4.995673,3.22467 -9.357687,5.48351 -11.823795,10.89402 -2.831211,6.21152 -0.769983,12.44731 -0.384844,19.26277 0.374281,6.62331 -0.473366,13.2969 3.020203,18.93634 3.308108,5.34006 8.012052,6.28732 13.649456,9.05851 5.634908,2.76996 10.678548,6.55243 16.957278,6.60124 6.46099,0.0502 11.53515,-3.58043 17.25843,-6.57893 6.00547,-3.14635 11.54397,-5.69554 15.09443,-11.4713 3.08673,-5.02137 3.20442,-10.25209 3.39911,-16.14311 0.25261,-7.64362 2.41942,-15.10035 -1.38583,-21.73426 -3.48128,-6.0691 -10.28982,-8.03169 -16.43786,-11.37158 -6.34119,-3.44481 -11.81467,-7.71249 -19.02649,-7.45359 -7.96433,0.28591 -13.62439,5.67786 -20.320088,9.99989 z"
       id="path3" />
    <path
       style="display:inline;fill-opacity:0.501401;stroke-width:0.292279"
       d="m 91.630152,107.52099 c -5.54561,3.54488 -11.043998,5.28301 -13.781585,11.23076 -3.142881,6.82831 -0.198561,14.42829 0.228977,21.92051 0.415483,7.28098 -1.136784,14.39202 2.741371,20.59143 3.672278,5.87031 9.505357,7.13684 15.763345,10.1832 6.25523,3.04501 11.27513,7.23377 18.24504,7.28743 7.17226,0.0552 12.90283,-4.36759 19.25616,-7.66383 6.66657,-3.45878 13.10607,-5.06739 17.04739,-11.41666 3.42653,-5.51998 2.94511,-12.30342 3.16124,-18.7794 0.28042,-8.40259 2.90432,-15.58529 -1.08597,-23.45052 -3.99029,-7.86523 -11.07311,-9.03053 -17.89795,-12.70204 -7.03926,-3.78688 -12.48261,-8.588662 -20.48834,-8.304054 -8.84108,0.314304 -15.756892,6.351994 -23.189678,11.103174 z"
       id="path3-8" />
    <path
       style="display:none;fill-opacity:0.501401;stroke-width:0.322554"
       d="m 91.555464,103.83166 c -6.192712,3.86617 -12.786298,6.78245 -15.843325,13.26928 -3.509617,7.4472 -1.568795,18.91799 -1.218523,23.34026 0.449395,5.67371 -0.475622,15.92324 3.855064,22.68453 4.100786,6.40237 11.164112,7.62834 15.901708,9.97215 5.341902,2.64277 13.271202,7.54918 21.054422,7.60771 8.00917,0.0602 16.50882,-5.68883 21.6165,-8.35844 5.15571,-2.69472 12.59416,-4.39266 16.99539,-11.31738 3.82635,-6.02029 2.59268,-13.20421 3.0765,-20.25467 0.42654,-6.21573 2.78961,-16.77107 -1.66628,-25.34916 -4.45592,-8.57809 -10.2106,-10.07581 -17.8318,-14.08009 -7.86066,-4.130099 -13.71238,-8.006274 -22.65227,-7.69587 -9.87273,0.342791 -18.729532,7.15451 -23.287386,10.18168 z"
       id="path2" />
  </g>
</svg>
