<svg xmlns="http://www.w3.org/2000/svg" viewBox="0 0 500 500"><path d="M234.66 237.68c2.4 3.35 4.72 6.58 7.03 9.82 3.25 4.55 6.51 9.1 9.75 13.67 7.85 11.05 21.27 10.53 28.57-1.15 6.87-11 13.69-22.06 20.53-33.09.88-1.42.97-1.43 1.84-.03 6.7 10.76 13.36 21.55 20.09 32.27 6.99 11.14 19.5 12.32 27.55 2.46 2.2-2.69 3.98-5.97 5.91-9.02 2.65-4.18 5.26-8.39 7.9-12.58.2-.32.43-.62.71-1.03 1.81 2.83 3.59 5.61 5.36 8.39 18.16 28.48 36.33 56.97 54.49 85.46 5.78 9.06 11.58 18.09 17.33 27.19 11.13 17.64 3.74 44.43-13.5 48.91-1.91.5-3.9.64-5.85.64-82.13.03-164.25.02-246.38.03-9.76 0-17.2-5.19-21.9-16.34-4.53-10.75-3.5-23.75 2.54-33.25 12.72-19.99 25.46-39.95 38.19-59.92 13.03-20.44 26.07-40.88 39.1-61.32.21-.32.42-.64.73-1.12zM134.25 392H72.19c-9.35 0-17.57-9.24-18.95-21.2-.8-6.93.41-13.2 3.55-18.91 28.3-51.47 33.24-65.27 61.53-116.74 9.57-17.41 19.13-34.84 28.72-52.23 7.93-14.38 24.05-14.44 31.99-.07 10.29 18.6 20.5 37.26 30.77 55.88.46.83.39 1.33-.1 2.02-2.01 2.9-4.03 5.78-5.95 8.79-2.28 3.59-4.39 7.35-6.67 10.93-16.09 25.28-8.86 12.86-24.96 38.12-9.84 15.44-19.76 30.8-29.51 46.33-8.54 13.6-11.32 29.08-8.51 46.22.04.22.07.43.14.85z"/><path d="M246.38 219.26c4.17-6.55 8.33-13.07 12.49-19.59 7.32-11.49 14.67-22.95 21.97-34.46 9.59-15.12 27.1-15.08 36.7.03 11.45 18.04 22.96 36.02 34.44 54.03.23.36.45.73.72 1.17l-5.63 9c-2.99 4.78-5.99 9.56-8.99 14.33-.88 1.4-.99 1.41-1.85.03-6.62-10.65-13.24-21.31-19.86-31.96-7.12-11.46-19.59-12.79-27.83-2.71-2.38 2.91-4.28 6.5-6.35 9.83-5.33 8.56-10.64 17.14-15.94 25.73-.56.91-.95 1.26-1.68.22-5.99-8.44-12.01-16.84-18.02-25.26-.05-.07-.07-.16-.16-.39z"/></svg>