<svg xmlns="http://www.w3.org/2000/svg" viewBox="0 0 500 500"><path d="M197.36 340.53c11.76 10.3 24.29 19.71 36.5 29.49 25.11 20.11 50.25 40.21 74.97 59.98H52.34c0-33.03-.09-65.4.19-97.77.02-2.29 2.22-5.75 4.28-6.63 9.12-3.87 18.21-8.5 27.94-10.19 69.52-12.1 92.3 7.32 112.62 25.12zM245.11 354.14c26.78-24.65 57.15-36.13 92.24-34.54 32.37 1.46 52.74 15.96 76.64 37.74 9.73 9.54 22.87 23.66 32.87 48.66 5.15 12.88 2.38 24.01 2 24-23.85-.37-33.67-.16-109.76.33 0 0-19.16-15.83-32.12-26.33-20.27-16.43-40.63-32.74-61.88-49.86zM333.36 186.52c-.14.3-.31.59-.42.9-1.32 3.67-4.27 5.88-8.16 5.94-4.57.07-9.14.08-13.71 0-4.93-.09-8.61-3.87-8.56-8.64.04-4.68 3.71-8.38 8.57-8.47 4.4-.08 8.8-.04 13.2-.02 4.44.03 7.28 2.09 8.77 6.29.07.2.22.38.33.57v3.43zM243.84 272.61c-.3-.14-.59-.31-.9-.42-3.67-1.32-5.89-4.26-5.95-8.16-.07-4.57-.08-9.15 0-13.72.09-4.92 3.88-8.61 8.64-8.56 4.68.04 8.38 3.71 8.47 8.56.08 4.4.04 8.8.02 13.2-.03 4.44-2.09 7.28-6.29 8.77-.2.07-.38.22-.57.33h-3.43zM247.27 97c.3.14.59.31.9.42 3.67 1.32 5.89 4.27 5.95 8.16.07 4.57.08 9.14 0 13.71-.09 4.92-3.88 8.61-8.64 8.57-4.68-.04-8.38-3.71-8.47-8.57-.08-4.51-.06-9.03 0-13.54.05-4.08 2.23-7 6.12-8.38.26-.09.49-.25.73-.38h3.43zM157.75 183.09c.14-.3.31-.59.42-.9 1.32-3.67 4.27-5.89 8.16-5.95 4.57-.07 9.14-.08 13.71 0 4.93.09 8.61 3.88 8.57 8.64-.04 4.69-3.71 8.38-8.57 8.47-4.57.08-9.14.07-13.71 0-3.9-.06-6.84-2.27-8.16-5.94-.11-.31-.28-.6-.42-.9v-3.43zM245.5 228.75c-24.25-.06-43.9-19.74-43.89-43.96.01-24.28 19.9-44.1 44.09-43.94 24.31.17 43.93 19.9 43.8 44.05-.12 24.29-19.81 43.91-44 43.84zM189.66 249.78c-3.7-.54-6.34-2.15-7.83-5.31-1.46-3.08-1.32-6.29 1-8.83 3.57-3.92 7.32-7.72 11.26-11.26 3.21-2.88 8.18-2.37 11.22.69 3.04 3.06 3.53 8.01.64 11.22-3.55 3.94-7.35 7.67-11.28 11.23-1.29 1.17-3.31 1.53-5 2.26zM180.99 128.77c.1-3.51 1.7-6.15 4.85-7.66 3.14-1.51 6.38-1.32 8.97 1.04 3.84 3.5 7.54 7.17 11.02 11.02 2.98 3.3 2.57 8.24-.52 11.36-3.09 3.12-8.05 3.57-11.35.6-3.86-3.47-7.52-7.18-11.01-11.03-1.21-1.34-1.63-3.38-2.41-5.11.14-.07.29-.14.43-.22zM310.11 128.73c.04 2.5-.95 4.57-2.66 6.3-3.09 3.13-6.17 6.27-9.34 9.33-3.7 3.57-8.88 3.61-12.3.2-3.41-3.4-3.39-8.61.17-12.3 3.09-3.21 6.25-6.36 9.46-9.45 2.72-2.62 5.99-3.33 9.48-1.85 3.36 1.42 5.03 4.14 5.19 7.78zM301.57 249.36c-2.44.05-4.47-.91-6.16-2.57-3.18-3.12-6.36-6.24-9.45-9.46-3.55-3.69-3.55-8.92-.12-12.3 3.44-3.39 8.61-3.33 12.3.25 3.16 3.06 6.26 6.18 9.33 9.34 2.69 2.76 3.44 6.05 1.91 9.61-1.44 3.35-4.16 5.02-7.81 5.14z"/></svg>