<svg xmlns="http://www.w3.org/2000/svg" viewBox="0 0 500 500"><path d="M73.36 359.42c15.81-11.02 33.85-15.01 52.62-16.3 7.95-.55 15.97-.09 23.69-.09 1.4-3.8.43-5.46-2.43-6.87-17.49-8.62-34.85-17.5-52.34-26.14-7.27-3.59-10.78-9.16-10.72-17.28.12-15.52.02-31.04.04-46.56.02-10.38 6.84-17.81 16.36-17.9 9.7-.09 16.72 7.33 16.79 17.91.07 11.51.09 23.02-.04 34.54-.03 2.5.61 3.93 3 5.08 9.86 4.73 19.61 9.72 30.03 14.92V164.1c0-9.35 4.59-16.03 12.28-18.03 10.73-2.79 20.78 4.94 20.84 16.26.11 19.01.03 38.03.03 57.04v48.1c1.45-.64 2.5-1.05 3.51-1.55 8.55-4.26 17.03-8.68 25.68-12.73 3.01-1.4 4.1-3.06 4.06-6.41-.17-17.2-.2-34.41-.02-51.61.12-11.63 10.99-19.32 21.75-15.69 6.27 2.11 11 7.87 11.04 14.51.15 22.76.15 45.53 0 68.29-.05 7.09-4.33 11.59-10.44 14.63-17.22 8.59-34.37 17.32-51.65 25.79-2.94 1.44-4.09 2.98-4.03 6.36.24 12.13.1 24.27.1 36.64 25.12 4.13 49.51 10.05 73.86 19.54-3.74 1.2-6.73 2.11-9.67 3.12-14.4 4.96-28.58 10.7-43.22 14.76-36.31 10.07-73.01 12.55-109.87 2.76-7.21-1.91-14.18-4.69-21.27-7.06v-19.4zM73.36 403.66c14.99 5.97 30.61 9.27 46.61 10.75 42.15 3.9 82.4-3.89 121.72-18.97 37.82-14.51 77.13-22.21 117.76-21.91 16.46.12 32.8 1.99 48.2 8.35 5.69 2.35 10.96 5.7 16.42 8.59v52.75H73.36v-39.55z"/><path d="M424.07 363.3c-27.34-12.48-56.27-14.51-85.69-12.6-11.57.75-23.07 2.62-34.62 3.91-1.23.14-2.58-.06-3.78-.43-11.08-3.43-22.18-6.81-33.19-10.47-8.79-2.93-17.46-6.23-27.41-9.81 12.03-3.77 22.95-7.56 34.07-10.6 28.27-7.72 57.03-12.37 86.42-11.88 18.3.31 36.35 2.52 53.13 10.6 3.82 1.84 7.38 4.22 11.06 6.36v34.92zM293.13 145.26c-.19-36.63 29.37-66.17 66.29-66.26 36.11-.09 65.7 29.28 65.94 65.44.25 36.92-28.99 66.65-65.71 66.82-36.86.17-66.33-29.07-66.52-66zm99.25.17c.36-17.91-14.55-33.13-32.75-33.45-17.99-.32-33.14 14.44-33.53 32.68-.39 17.99 14.31 33.18 32.55 33.63 18.13.45 33.36-14.38 33.73-32.86z"/></svg>