<svg xmlns="http://www.w3.org/2000/svg" viewBox="0 0 500 500"><path d="M84.21 165.27c13.15-.03 25.05 3.71 35.8 11.37 6.31 4.5 12.56 9.24 20.43 10.86 12.05 2.47 23.27.9 33.76-5.98 7.01-4.6 14.03-9.73 21.8-12.5 19.02-6.77 37.6-4.99 54.8 6.34 4.33 2.85 8.47 6.07 13.06 8.39 14.67 7.44 29.03 6.61 43.02-2.19 7.1-4.47 14.03-9.72 21.8-12.51 19.01-6.81 37.59-5.07 54.81 6.24 4.24 2.78 8.46 5.59 12.76 8.29 5.94 3.74 12.6 4.9 19.71 5.07v19.32c-10.34.09-20.13-1.99-29.06-7.25-5.76-3.39-11.04-7.64-16.93-10.77-15.01-7.99-29.74-7.07-44.13 2.11-7.07 4.51-14.07 9.69-21.85 12.4-18.81 6.55-37.21 4.79-54.22-6.37-4.42-2.9-8.65-6.19-13.34-8.56-14.56-7.39-28.83-6.54-42.74 2.13-7.21 4.49-14.22 9.85-22.08 12.66-19.01 6.77-37.6 5.01-54.8-6.35-2.7-1.79-5.42-3.55-8.06-5.43-7.35-5.24-15.48-7.99-24.54-7.82v-19.45zM84.21 222.97c11.95-.68 22.8 2.61 32.77 9.07 4.44 2.88 8.65 6.16 13.3 8.64 15.03 8 29.73 7.1 44.15-1.98 7.18-4.52 14.26-9.78 22.15-12.49 18.67-6.41 36.98-4.8 53.9 6.3 4.42 2.9 8.66 6.17 13.34 8.57 14.53 7.45 28.9 6.74 42.72-2.01 7.46-4.72 14.31-10.57 22.94-13.16 18.69-5.61 36.66-4.48 53.42 6.35 4.44 2.87 8.79 5.89 13.28 8.67 5.26 3.25 11.05 4.78 17.23 4.9.84.02 1.68.21 2.63.34v19.05c-11.92.36-22.69-2.7-32.53-9.12-4.61-3.01-8.99-6.45-13.86-8.96-14.73-7.63-29.28-6.94-43.28 2.06-7.34 4.72-14.14 10.44-22.67 12.98-18.81 5.6-36.87 4.47-53.69-6.54-4.42-2.9-8.65-6.17-13.33-8.58-14.64-7.53-29.1-6.81-43 2.07-7.35 4.7-14.13 10.44-22.65 13.01-18.8 5.67-36.85 4.51-53.71-6.41-5.25-3.4-10.43-6.93-15.89-9.97-5.28-2.94-11.15-3.88-17.21-3.31V223zM400.29 298.18c-4.35-2.7-8.6-5.57-12.9-8.34a64.754 64.754 0 00-10.01-5.29c-14.03-5.88-28.82-5.88-44.14-1.39-1.34.4-2.64.86-3.9 1.39-7.02 2.91-13.02 7.63-19.39 11.69-14.07 8.97-28.71 9.69-43.59 2.24-4.65-2.33-8.85-5.55-13.23-8.41-3.4-2.2-6.84-4.05-10.33-5.53-14.36-6.12-29.51-6.24-44.94-.91-.81.28-1.6.58-2.4.91-7.05 2.89-13.53 7.53-20 11.71-10.65 6.87-22.02 8.45-34.23 5.98-7.98-1.62-14.32-6.37-20.71-10.86-3.97-2.79-8.1-5.07-12.39-6.83-7.48-3.07-15.44-4.57-23.91-4.52v10.7a7.88 7.88 0 00-.17 1.62v144.87c0 4.29 3.55 7.8 7.91 7.8h316.17c4.35 0 7.91-3.51 7.91-7.8V303.13c-5.63-.53-10.9-1.96-15.73-4.96zm-267.52 64.33c-6.46 0-11.69-5.24-11.69-11.69s5.24-11.69 11.69-11.69 11.69 5.24 11.69 11.69-5.24 11.69-11.69 11.69zm20.14 66.27c-6.46 0-11.69-5.24-11.69-11.69s5.24-11.69 11.69-11.69 11.69 5.24 11.69 11.69-5.24 11.69-11.69 11.69zm54.57-101.35c0-6.46 5.24-11.69 11.69-11.69s11.69 5.24 11.69 11.69-5.24 11.69-11.69 11.69-11.69-5.24-11.69-11.69zm19.49 74.06c-6.46 0-11.69-5.24-11.69-11.69s5.24-11.69 11.69-11.69 11.69 5.24 11.69 11.69-5.24 11.69-11.69 11.69zm59.12-27.28c-6.46 0-11.69-5.24-11.69-11.69s5.24-11.69 11.69-11.69 11.69 5.24 11.69 11.69-5.24 11.69-11.69 11.69zm46.77 42.87c-6.46 0-11.69-5.24-11.69-11.69s5.24-11.69 11.69-11.69 11.69 5.24 11.69 11.69-5.24 11.69-11.69 11.69zm27.29-54.57c-6.46 0-11.69-5.24-11.69-11.69s5.24-11.69 11.69-11.69 11.69 5.24 11.69 11.69-5.24 11.69-11.69 11.69z"/></svg>