<svg xmlns="http://www.w3.org/2000/svg" viewBox="0 0 500 500"><path d="M109.04 441.05c-1.41-.07-2.82-.15-4.24-.22-7.38-.38-14.77-.76-22.15-1.13-.58-.03-.9-.2-.84-.84.03-.25 0-.51 0-.77V309.38c0-.81.63-1.48 1.44-1.53.99-.07 1.96-.13 2.94-.2 11.28-.82 22.58-1.39 33.83-2.53 21.17-2.14 41.97-6.2 62.16-13.07 10.72-3.65 20.98-8.23 30.16-14.96 6.2-4.54 11.68-9.76 15.65-16.43 5.42-9.12 6.76-18.9 4.68-29.2-.87-4.34-2.13-8.61-2.79-12.97-2.94-19.23 1.99-36.12 15.41-50.36 8.63-9.17 19.18-15.52 30.61-20.54 11.86-5.21 24.3-8.43 37.05-10.57 10.88-1.83 21.84-2.89 32.87-3.24 11.06-.36 22.11-.06 33.15.78 12.09.93 24.1 2.51 36.05 4.52.79.13 1.6.54 2.25 1.02.4.29.71.97.72 1.47.07 10.77.1 21.54.13 32.31l-1.97 1.97h-4.89c-8.86.03-17.72-.16-26.57.16-12.25.45-24.35 2.2-36.14 5.68-4.24 1.25-8.29 2.96-12.08 5.23-8.47 5.07-12.46 15.33-9.59 24.78 2.11 6.94 5.28 13.43 8.76 19.76 4.19 7.63 8.62 15.13 12.9 22.72 4.48 7.95 8.03 16.27 9.75 25.28 2.51 13.11 1.13 25.87-3.66 38.28-4.16 10.78-10.23 20.47-17.13 29.67-11.87 15.8-26.25 29.03-42.05 40.78-20.29 15.09-42.63 26.24-66.49 34.45-16.92 5.82-34.24 10.09-51.86 13.11-13.07 2.24-26.23 3.79-39.48 4.48-6.1.32-12.22.45-18.33.68-.21 0-.42.07-.63.13-.12.03-.25.05-.38.05h-9.26z"/><path d="M80.57 276.5c0-.99.17-1.97.53-2.88v-.01c1.45-3.68 4.74-5.67 8.9-5.2 15.62-.46 15.73.47 27.02-1.34 28.9-4.62 33.88-3.85 51.97-11.94 6.43-2.88 15.49-5.92 20.74-10.76 9.32-9.39 4.3-39.54 3.83-44.2-.7-6.93.87-15.14 2.75-21.98 5.61-20.42 11.41-31.7 24.7-45.84 15.49-16.48 34.6-26.88 56.13-33.16 10.96-3.2 22.15-5.14 33.52-6.2 8.98-.83 17.99-1.19 26.99-.74 9.06.44 18.12 1.14 27.14 2.09 16.5 1.74 32.8 4.76 49.12 7.68 3.39.61 5.82 3.49 6.13 7.22.49 5.91-4.07 9.83-10.17 8.8-11.55-1.94-23.08-3.98-34.65-5.76a316.93 316.93 0 00-37.05-3.47c-9.9-.34-19.78-.16-29.61.97-20.1 2.32-39.25 7.64-56.61 18.43-15.97 9.92-28.01 23.31-35.53 40.58-5.41 12.43-8.49 27.07-6.36 40.54.77 4.84 2.32 17.06 1.83 21.98-.92 9.16-1.03 12.34-5.09 18.88-4.76 7.67-15.48 12.25-23.41 16.41-8.36 4.38-16.37 6.85-25.53 9.59-10.3 3.09-21.87 4.74-32.56 5.99-11.4 1.33-23.66 2.72-35.78 2.43-3.87-.09 2.33.48-1.52.02-3.65-.44-6.57-2.62-7.24-6.71-.02-.1-.11-.19-.16-.28v-1.15z"/></svg>