<?xml version="1.0" encoding="UTF-8" standalone="no"?>
<!-- Created with Inkscape (http://www.inkscape.org/) -->

<svg
   width="1965.7585mm"
   height="45.175175mm"
   viewBox="0 0 1965.7586 45.175175"
   version="1.1"
   id="svg1"
   sodipodi:docname="bg_fields.svg"
   inkscape:export-filename="bg_fields.svg"
   inkscape:export-xdpi="96"
   inkscape:export-ydpi="96"
   inkscape:version="1.4.2 (f4327f4, 2025-05-13)"
   xmlns:inkscape="http://www.inkscape.org/namespaces/inkscape"
   xmlns:sodipodi="http://sodipodi.sourceforge.net/DTD/sodipodi-0.dtd"
   xmlns:xlink="http://www.w3.org/1999/xlink"
   xmlns="http://www.w3.org/2000/svg"
   xmlns:svg="http://www.w3.org/2000/svg">
  <sodipodi:namedview
     id="namedview1"
     pagecolor="#ffffff"
     bordercolor="#000000"
     borderopacity="0.25"
     inkscape:showpageshadow="2"
     inkscape:pageopacity="0.0"
     inkscape:pagecheckerboard="0"
     inkscape:deskcolor="#d1d1d1"
     inkscape:document-units="mm"
     inkscape:zoom="0.16143997"
     inkscape:cx="4283.3258"
     inkscape:cy="-634.91091"
     inkscape:window-width="2560"
     inkscape:window-height="1369"
     inkscape:window-x="-8"
     inkscape:window-y="-8"
     inkscape:window-maximized="1"
     inkscape:current-layer="g4">
    <inkscape:page
       x="4.1743892e-31"
       y="0"
       width="1965.7585"
       height="45.175175"
       id="page2"
       margin="0"
       bleed="0" />
  </sodipodi:namedview>
  <defs
     id="defs1">
    <linearGradient
       id="linearGradient1"
       inkscape:collect="always">
      <stop
         style="stop-color:#000000;stop-opacity:1;"
         offset="0.15037164"
         id="stop1" />
      <stop
         style="stop-color:#000000;stop-opacity:0;"
         offset="0.70568776"
         id="stop2" />
    </linearGradient>
    <linearGradient
       inkscape:collect="always"
       xlink:href="#linearGradient1"
       id="linearGradient15"
       gradientUnits="userSpaceOnUse"
       gradientTransform="translate(148.95971,-0.0055106)"
       x1="43.276718"
       y1="-25.294312"
       x2="43.276718"
       y2="61.259125" />
    <linearGradient
       inkscape:collect="always"
       xlink:href="#linearGradient1"
       id="linearGradient6"
       gradientUnits="userSpaceOnUse"
       gradientTransform="translate(1115.153,-0.00550711)"
       x1="43.276718"
       y1="-25.294312"
       x2="43.276718"
       y2="61.259125" />
  </defs>
  <g
     id="g4"
     transform="translate(3.0421916,8.8719088)">
    <path
       id="path1"
       style="fill:url(#linearGradient15);stroke-width:0.264583"
       d="M 54.17137,-8.8717594 C 42.043968,-8.7999219 17.6539,7.4132754 -3.0421916,36.055731 l 18.3043096,0.144694 c 0.446813,-0.644196 0.894918,-1.276597 1.344104,-1.897559 C 39.089345,3.2218044 64.266878,0.97880215 64.266878,0.97880215 c 0,0 -2.589171,-9.89502585 -10.095508,-9.85056155 z m 161.31935,0 c -12.12741,0.071837 -36.51747,16.2850352 -57.21356,44.9274904 l 18.30431,0.144694 c 0.44681,-0.644196 0.89491,-1.276597 1.3441,-1.897559 22.48312,-31.0810614 47.66014,-33.32406385 47.66014,-33.32406385 0,0 -2.58866,-9.89502655 -10.09499,-9.85056155 z m 321.70853,0 c -5.74472,0.034031 -14.24099,3.6901547 -23.79286,10.5735148 -0.6092,-0.3851622 -2.20211,-1.04997375 -4.67724,-1.19320878 -2.60697,-0.150864 -6.19238,0.27659846 -10.63862,2.21795248 -9.27151,4.2634065 -27.01706,15.2726399 -40.24302,33.5767619 h 15.06161 C 481.79875,21.64803 501.76038,6.255859 513.13974,1.8945085 502.59444,9.5443593 490.78697,21.107243 479.98569,36.055731 L 498.29,36.200425 c 0.44681,-0.644196 0.89492,-1.276597 1.3441,-1.897559 22.48313,-31.0810617 47.66066,-33.32406385 47.66066,-33.32406385 0,0 -2.58917,-9.89502655 -10.09551,-9.85056155 z m 161.31935,0 c -12.12741,0.07184 -36.51747,16.2850353 -57.21356,44.9274904 l 18.30431,0.144694 c 0.44681,-0.644196 0.89491,-1.276597 1.3441,-1.897559 22.48312,-31.0810617 47.66014,-33.32406385 47.66014,-33.32406385 0,0 -2.58866,-9.89502655 -10.09499,-9.85056155 z m -322.47954,0.1028361 c -5.65773,0.033515 -13.98443,3.5801853 -23.35981,10.2629395 -0.71054,-0.3905743 -2.23564,-0.95735891 -4.49844,-1.08830568 -2.60697,-0.1508642 -6.19238,0.27659856 -10.63862,2.21795248 -9.27151,4.2634073 -27.01706,15.27264 -40.24302,33.576762 h 15.06161 C 321.06455,21.851603 340.38199,6.7962697 351.86638,2.0795102 341.3498,9.7298698 329.58816,21.263537 318.8255,36.158567 l 18.30431,0.144694 c 0.44681,-0.644196 0.89491,-1.276597 1.3441,-1.897559 22.48312,-31.0810607 47.66014,-33.3240637 47.66014,-33.3240637 0,0 -2.58866,-9.8950266 -10.09499,-9.8505616 z m 483.02788,0 c -5.65773,0.03351 -13.98443,3.5801859 -23.35981,10.2629395 -0.71054,-0.390574 -2.23563,-0.95735968 -4.49843,-1.08830568 -2.60697,-0.150865 -6.19239,0.27659842 -10.63863,2.21795248 -9.27151,4.263407 -27.01706,15.27264 -40.24302,33.576762 h 15.06161 c 8.70377,-14.348822 28.02121,-29.4041548 39.5056,-34.1209148 -10.51658,7.65036 -22.27822,19.1840268 -33.04088,34.0790568 l 18.30431,0.144694 c 0.44681,-0.644196 0.89491,-1.276597 1.3441,-1.897559 22.48312,-31.0810606 47.66014,-33.3240637 47.66014,-33.3240637 0,0 -2.58866,-9.8950266 -10.09499,-9.8505616 z M 149.54901,0.30339118 c -2.60697,-0.1508642 -6.19289,0.27659864 -10.63914,2.21795252 -9.2715,4.2634071 -27.11939,15.3749593 -40.345344,33.6790813 h 15.190284 c 8.98297,-14.809104 29.24578,-30.4731546 40.56032,-34.6449139 -0.53097,-0.371921 -2.15915,-1.10125572 -4.76612,-1.25211992 z m 161.31935,0 c -2.60697,-0.1508642 -6.19289,0.27659864 -10.63914,2.21795252 -9.2715,4.2634076 -27.11938,15.3749593 -40.34534,33.6790813 h 15.19029 c 8.98297,-14.809104 29.24577,-30.4731547 40.56031,-34.6449139 -0.53097,-0.371921 -2.15915,-1.10125572 -4.76612,-1.25211992 z m 321.70853,0 c -2.60697,-0.150864 -6.19289,0.27659843 -10.63914,2.21795252 -9.2715,4.263407 -27.11939,15.3749593 -40.34534,33.6790813 h 15.19028 c 8.98297,-14.809104 29.24578,-30.4731549 40.56032,-34.6449139 -0.53097,-0.371921 -2.15915,-1.10125592 -4.76612,-1.25211992 z m 161.31935,0 c -2.60697,-0.150864 -6.19289,0.27659843 -10.63914,2.21795252 -9.2715,4.263407 -27.11938,15.3749593 -40.34534,33.6790813 h 15.19029 C 767.08502,21.391321 787.34782,5.7272701 798.66236,1.5555111 798.13139,1.1835901 796.50321,0.45425518 793.89624,0.30339118 Z M 75.360775,0.40571052 C 72.753803,0.25484632 69.168389,0.68230906 64.722148,2.623663 55.450641,6.8870701 37.530414,17.896303 24.30446,36.200425 H 39.530404 C 48.513374,21.391321 68.812353,5.8295898 80.126892,1.6578305 79.595927,1.2859094 77.967748,0.55657472 75.360775,0.40571052 Z m 55.750605,0 C 128.50441,0.25484632 124.91847,0.68230906 120.47223,2.623663 111.20072,6.8870701 93.316673,17.896303 80.090719,36.200425 H 95.281006 C 104.26397,21.391321 124.56295,5.8295898 135.87749,1.6578305 135.34653,1.2859094 133.71836,0.55657472 131.11138,0.40571052 Z m 55.75008,0 c -2.60697,-0.1508642 -6.19238,0.27659854 -10.63862,2.21795248 -9.27151,4.2634071 -27.01707,15.27264 -40.24303,33.576762 h 15.06213 c 8.98297,-14.809104 29.2711,-30.3708352 40.58564,-34.5425945 -0.53097,-0.3719211 -2.15915,-1.10125578 -4.76612,-1.25211998 z m 49.81867,0 c -2.60697,-0.1508642 -6.19239,0.27659856 -10.63863,2.21795248 -9.27151,4.2634073 -27.19224,15.27264 -40.4182,33.576762 h 15.22646 C 209.83273,21.391321 230.1317,5.8295903 241.44624,1.6578305 240.91528,1.2859094 239.28711,0.55657472 236.68013,0.40571052 Z m 55.7506,0 c -2.60697,-0.1508642 -6.1929,0.27659856 -10.63914,2.21795248 -9.27151,4.2634073 -27.15557,15.27264 -40.38152,33.576762 h 15.19029 C 265.58333,21.391321 285.88231,5.8295903 297.19685,1.6578305 296.66589,1.2859094 295.03771,0.55657472 292.43073,0.40571052 Z m 265.95793,0 c -2.60697,-0.150865 -6.19239,0.27659842 -10.63863,2.21795248 -9.27151,4.263407 -27.19173,15.27264 -40.41769,33.576762 h 15.22594 c 8.98297,-14.809104 29.28196,-30.3708355 40.59649,-34.5425945 -0.53096,-0.371922 -2.15914,-1.10125598 -4.76611,-1.25211998 z m 55.7506,0 c -2.60697,-0.150865 -6.19291,0.27659842 -10.63915,2.21795248 -9.27151,4.263407 -27.15555,15.27264 -40.38151,33.576762 h 15.19029 c 8.98296,-14.809104 29.28195,-30.3708355 40.59649,-34.5425945 -0.53096,-0.371922 -2.15914,-1.10125598 -4.76612,-1.25211998 z m 55.75008,0 c -2.60697,-0.150865 -6.19238,0.27659842 -10.63862,2.21795248 -9.27151,4.263407 -27.01707,15.27264 -40.24303,33.576762 h 15.06213 c 8.98297,-14.809104 29.2711,-30.3708355 40.58564,-34.5425945 -0.53097,-0.371922 -2.15915,-1.10125598 -4.76612,-1.25211998 z m 49.81867,0 c -2.60697,-0.150865 -6.19239,0.27659842 -10.63863,2.21795248 -9.27151,4.263407 -27.19224,15.27264 -40.4182,33.576762 h 15.22646 c 8.98297,-14.809104 29.28195,-30.3708355 40.59649,-34.5425945 -0.53096,-0.371922 -2.15914,-1.10125598 -4.76612,-1.25211998 z m 55.7506,0 c -2.60697,-0.150865 -6.1929,0.27659842 -10.63914,2.21795248 -9.27151,4.263407 -27.15557,15.27264 -40.38152,33.576762 h 15.19029 C 748.61121,21.391321 768.91019,5.8295895 780.22473,1.6578305 779.69377,1.2859085 778.06559,0.55657452 775.45861,0.40571052 Z M 471.4167,0.40622728 c -2.60697,-0.150864 -6.19289,0.27659844 -10.63914,2.21795252 -9.2715,4.2634065 -27.11938,15.3749592 -40.34534,33.6790812 h 15.19029 C 444.60548,21.494157 464.86828,5.8301057 476.18282,1.6583472 475.65185,1.2864262 474.02367,0.55709128 471.4167,0.40622728 Z m 483.02788,0 c -2.60697,-0.150864 -6.19289,0.27659843 -10.63914,2.21795252 -9.2715,4.263406 -27.11938,15.3749592 -40.34534,33.6790812 h 15.19029 C 927.63336,21.494157 947.89616,5.8301062 959.2107,1.6583472 958.67973,1.2864262 957.05155,0.55709128 954.44458,0.40622728 Z M 112.67374,0.50802985 C 110.06677,0.35716565 106.48084,0.78462861 102.0346,2.7259823 92.763089,6.9893894 74.915212,17.896303 61.689258,36.200425 H 76.879545 C 85.862515,21.391321 106.12532,5.9319091 117.43986,1.7601498 116.90889,1.3882287 115.28071,0.65889405 112.67374,0.50802985 Z m 55.75009,0 C 165.81685,0.35716565 162.23144,0.78462861 157.7852,2.7259823 148.51369,6.9893894 130.66581,17.896303 117.43986,36.200425 h 15.18977 C 141.6126,21.391321 161.87541,5.9319091 173.18995,1.7601498 172.65898,1.3882287 171.0308,0.65889405 168.42383,0.50802985 Z m 105.56926,0 c -2.60697,-0.1508642 -6.1929,0.27659881 -10.63914,2.21795245 -9.27151,4.263407 -27.11939,15.1703207 -40.34534,33.4744427 H 238.1989 C 247.18187,21.391321 267.44467,5.9319093 278.75921,1.7601498 278.22824,1.3882287 276.60006,0.65889405 273.99309,0.50802985 Z m 55.75009,0 c -2.60698,-0.1508642 -6.19239,0.27659881 -10.63863,2.21795245 -9.27151,4.263407 -27.11939,15.1703207 -40.34534,33.4744427 h 15.18977 C 302.93195,21.391321 323.19476,5.9319093 334.5093,1.7601498 333.97833,1.3882287 332.35015,0.65889405 329.74318,0.50802985 Z m 265.95844,0 c -2.60697,-0.150864 -6.1929,0.27659943 -10.63914,2.21795245 -9.27151,4.263407 -27.11939,15.1703207 -40.34534,33.4744427 h 15.19029 C 568.8904,21.391321 589.1532,5.9319088 600.46774,1.7601498 599.93677,1.3882288 598.30859,0.65889385 595.70162,0.50802985 Z m 55.75009,0 c -2.60698,-0.150864 -6.19239,0.27659943 -10.63863,2.21795245 -9.27151,4.263407 -27.11939,15.1703207 -40.34534,33.4744427 h 15.18977 c 8.98297,-14.809104 29.24578,-30.2685162 40.56032,-34.4402752 -0.53097,-0.371921 -2.15915,-1.10125595 -4.76612,-1.25211995 z m 105.56927,0 c -2.60697,-0.150864 -6.19291,0.27659943 -10.63915,2.21795245 -9.27151,4.263407 -27.11939,15.1703207 -40.34534,33.4744427 h 15.19029 c 8.98297,-14.809104 29.24577,-30.2685162 40.56031,-34.4402752 -0.53097,-0.371921 -2.15914,-1.10125595 -4.76611,-1.25211995 z m 55.75008,0 c -2.60698,-0.150864 -6.19239,0.27659943 -10.63863,2.21795245 -9.27151,4.263407 -27.11939,15.1703207 -40.34534,33.4744427 h 15.18977 c 8.98297,-14.809104 29.24578,-30.2685162 40.56032,-34.4402752 -0.53097,-0.371921 -2.15915,-1.10125595 -4.76612,-1.25211995 z m -415.54259,5.1677e-4 c -2.60697,-0.150864 -6.19239,0.27659846 -10.63863,2.21795248 -9.27151,4.2634065 -27.19173,15.2726399 -40.41769,33.5767619 h 15.22595 c 8.98297,-14.809104 29.28194,-30.3708349 40.59648,-34.5425944 -0.53096,-0.371921 -2.15913,-1.10125498 -4.76611,-1.25211998 z m 55.7506,0 c -2.60697,-0.150864 -6.1929,0.27659846 -10.63914,2.21795248 -9.27151,4.2634065 -27.15557,15.2726399 -40.38152,33.5767619 h 15.19029 c 8.98297,-14.809104 29.28195,-30.3708349 40.59649,-34.5425944 -0.53096,-0.371921 -2.15914,-1.10125498 -4.76612,-1.25211998 z m 427.27728,0 c -2.60697,-0.150864 -6.19239,0.27659842 -10.63863,2.21795248 -9.27151,4.263407 -27.19173,15.2726399 -40.41769,33.5767619 h 15.22595 c 8.98297,-14.809104 29.28195,-30.3708354 40.59649,-34.5425944 -0.53096,-0.371921 -2.15914,-1.10125498 -4.76612,-1.25211998 z m 55.7506,0 c -2.60697,-0.150864 -6.1929,0.27659842 -10.63914,2.21795248 -9.27151,4.263407 -27.15557,15.2726399 -40.38152,33.5767619 h 15.19029 c 8.98297,-14.809104 29.28195,-30.3708354 40.59649,-34.5425944 -0.53096,-0.371921 -2.15914,-1.10125498 -4.76612,-1.25211998 z m 55.75009,0 c -2.60697,-0.150864 -6.19239,0.27659842 -10.63863,2.21795248 -9.27151,4.263407 -27.01706,15.2726399 -40.24302,33.5767619 H 955.937 C 964.91997,21.494157 985.20861,5.9324256 996.52315,1.7606666 995.99218,1.3887456 994.36401,0.65941162 991.75704,0.50854662 Z M 94.236108,0.61086595 C 91.629136,0.46000175 88.043206,0.88746465 83.596965,2.8288184 74.325458,7.0922255 56.555092,17.896303 43.329138,36.200425 H 58.416589 C 67.399559,21.391321 87.687687,6.0342284 99.002226,1.8624691 98.471261,1.4905481 96.84308,0.76173015 94.236108,0.61086595 Z m 161.319352,0 c -2.60698,-0.1508642 -6.1929,0.27659871 -10.63914,2.21795245 -9.2715,4.2634069 -27.04239,15.0674846 -40.26835,33.3716066 h 15.08745 c 8.98297,-14.809104 29.27162,-30.1661968 40.58616,-34.3379559 -0.53096,-0.371921 -2.15915,-1.10073895 -4.76612,-1.25160315 z m 178.98597,0 c -2.60697,-0.150865 -6.1929,0.27659851 -10.63914,2.21795245 -9.27151,4.2634065 -27.11939,15.1703206 -40.34534,33.4744426 h 15.19029 C 407.73021,21.494157 427.99301,6.0347444 439.30755,1.8629859 438.77658,1.4910649 437.1484,0.76172995 434.54143,0.61086595 Z m 55.75009,0 c -2.60698,-0.150864 -6.19239,0.27659851 -10.63863,2.21795245 -9.27151,4.2634065 -27.11939,15.1703206 -40.34534,33.4744426 h 15.18977 C 463.48029,21.494157 483.7431,6.0347444 495.05764,1.8629859 494.52667,1.4910649 492.89849,0.76172995 490.29152,0.61086595 Z m 86.97247,0 c -2.60697,-0.150864 -6.1929,0.27659943 -10.63914,2.21795245 -9.27151,4.263408 -27.04188,15.0674846 -40.26783,33.3716066 h 15.08745 c 8.98297,-14.809104 29.2711,-30.1661969 40.58564,-34.3379559 -0.53097,-0.371921 -2.15915,-1.10073915 -4.76612,-1.25160315 z m 161.31935,0 c -2.60698,-0.150864 -6.1929,0.27659943 -10.63914,2.21795245 -9.2715,4.263407 -27.04239,15.0674846 -40.26835,33.3716066 h 15.08746 C 711.74628,21.391321 732.03492,6.0342281 743.34946,1.8624691 742.8185,1.4905481 741.19031,0.76172995 738.58334,0.61086595 Z m 178.98598,0 c -2.60697,-0.150865 -6.19291,0.27659843 -10.63915,2.21795245 -9.27151,4.263407 -27.11939,15.1703206 -40.34534,33.4744426 h 15.19029 c 8.98297,-14.809104 29.24577,-30.2685171 40.56031,-34.4402751 -0.53097,-0.371921 -2.15914,-1.10125595 -4.76611,-1.25211995 z m 55.75008,0 c -2.60698,-0.150864 -6.19239,0.27659843 -10.63863,2.21795245 -9.27151,4.263407 -27.11939,15.1703206 -40.34534,33.4744426 H 937.5252 C 946.50817,21.494157 966.77098,6.0347439 978.08552,1.8629859 977.55455,1.4910649 975.92637,0.76172995 973.3194,0.61086595 Z m -557.2156,0.1028361 c -2.60698,-0.150864 -6.1929,0.27659851 -10.63914,2.21795245 -9.2715,4.2634065 -27.04239,15.0674845 -40.26835,33.3716065 h 15.08745 C 389.26673,21.494157 409.55538,6.1370637 420.86992,1.9653052 420.33896,1.5933842 418.71077,0.86456605 416.1038,0.71370205 Z m 483.02788,0 c -2.60698,-0.150864 -6.1929,0.27659843 -10.63914,2.21795245 -9.2715,4.263406 -27.04239,15.0674845 -40.26835,33.3716065 h 15.08746 C 872.29462,21.494157 892.58326,6.1370642 903.8978,1.9653052 903.36684,1.5933842 901.73865,0.86456605 899.13168,0.71370205 Z" />
    <path
       id="path1-1"
       style="fill:url(#linearGradient6);stroke-width:0.264583"
       d="m 1020.3646,-8.8717551 c -12.1274,0.07184 -36.51747,16.2850344 -57.21356,44.9274901 l 18.30431,0.144694 c 0.44681,-0.644196 0.89492,-1.276597 1.3441,-1.897559 22.48315,-31.0810621 47.66065,-33.32406411 47.66065,-33.32406411 0,0 -2.5891,-9.89502599 -10.0955,-9.85056099 z m 161.3194,0 c -12.1274,0.07184 -36.5175,16.2850348 -57.2136,44.9274901 l 18.3043,0.144694 c 0.4468,-0.644196 0.8949,-1.276597 1.3441,-1.897559 22.4832,-31.0810611 47.6602,-33.32406411 47.6602,-33.32406411 0,0 -2.5887,-9.89502599 -10.095,-9.85056099 z m 321.7085,0 c -5.7447,0.03403 -14.241,3.690154 -23.7928,10.573514 -0.6092,-0.385162 -2.2022,-1.04997301 -4.6773,-1.19320801 -2.607,-0.150864 -6.1924,0.276598 -10.6386,2.21795201 -9.2715,4.2634066 -27.0171,15.2726401 -40.243,33.5767621 h 15.0616 c 8.8896,-14.655231 28.8512,-30.0474021 40.2306,-34.4087531 -10.5453,7.6498513 -22.3528,19.2127351 -33.154,34.1612231 l 18.3043,0.144694 c 0.4468,-0.644196 0.8949,-1.276597 1.3441,-1.897559 22.4831,-31.0810621 47.6606,-33.32406411 47.6606,-33.32406411 0,0 -2.5891,-9.89502599 -10.0955,-9.85056099 z m 161.3194,0 c -12.1274,0.07184 -36.5175,16.2850349 -57.2136,44.9274901 l 18.3043,0.144694 c 0.4468,-0.644196 0.8949,-1.276597 1.3441,-1.897559 22.4831,-31.0810621 47.6602,-33.32406411 47.6602,-33.32406411 0,0 -2.5887,-9.89502599 -10.095,-9.85056099 z m -322.4796,0.102836 c -5.6577,0.03352 -13.9844,3.580185 -23.3598,10.262939 -0.7105,-0.390574 -2.2356,-0.95735901 -4.4984,-1.08830501 -2.607,-0.150865 -6.1924,0.276598 -10.6386,2.21795201 -9.2716,4.2634073 -27.0171,15.2726401 -40.2431,33.5767621 h 15.0616 c 8.7038,-14.348822 28.0213,-29.4041554 39.5056,-34.1209151 -10.5165,7.6503598 -22.2782,19.1840271 -33.0408,34.0790571 l 18.3043,0.144694 c 0.4468,-0.644196 0.8949,-1.276597 1.3441,-1.897559 22.4831,-31.0810611 47.6601,-33.3240641 47.6601,-33.3240641 0,0 -2.5886,-9.895026 -10.095,-9.850561 z m 483.0279,0 c -5.6577,0.03351 -13.9844,3.580186 -23.3598,10.262939 -0.7106,-0.390574 -2.2356,-0.95735901 -4.4984,-1.08830501 -2.607,-0.150865 -6.1924,0.276598 -10.6387,2.21795201 -9.2715,4.263407 -27.017,15.2726401 -40.243,33.5767621 h 15.0616 c 8.7038,-14.348822 28.0212,-29.4041549 39.5056,-34.1209151 -10.5166,7.6503602 -22.2782,19.1840271 -33.0409,34.0790571 l 18.3043,0.144694 c 0.4469,-0.644196 0.895,-1.276597 1.3441,-1.897559 22.4832,-31.0810611 47.6602,-33.3240641 47.6602,-33.3240641 0,0 -2.5887,-9.895026 -10.095,-9.850561 z m -709.5179,9.07231399 c -2.607,-0.150864 -6.1929,0.276599 -10.6392,2.21795301 -9.2715,4.2634068 -27.1194,15.3749591 -40.3453,33.6790811 h 15.1903 c 8.9829,-14.809104 29.2458,-30.4731547 40.5603,-34.6449141 -0.531,-0.371921 -2.1592,-1.10125601 -4.7661,-1.25212001 z m 161.3193,0 c -2.6069,-0.150864 -6.1929,0.276599 -10.6391,2.21795301 -9.2715,4.2634073 -27.1194,15.3749591 -40.3454,33.6790811 h 15.1903 c 8.983,-14.809104 29.2458,-30.4731548 40.5603,-34.6449141 -0.5309,-0.371921 -2.1591,-1.10125601 -4.7661,-1.25212001 z m 321.7086,0 c -2.607,-0.150864 -6.1929,0.276599 -10.6392,2.21795301 -9.2715,4.2634067 -27.1194,15.3749591 -40.3453,33.6790811 h 15.1903 c 8.9829,-14.809104 29.2457,-30.473155 40.5603,-34.6449141 -0.531,-0.371921 -2.1592,-1.10125601 -4.7661,-1.25212001 z m 161.3193,0 c -2.607,-0.150864 -6.1929,0.276599 -10.6391,2.21795301 -9.2715,4.2634067 -27.1194,15.3749591 -40.3454,33.6790811 h 15.1903 c 8.983,-14.809104 29.2458,-30.473155 40.5603,-34.6449141 -0.5309,-0.371921 -2.1591,-1.10125601 -4.7661,-1.25212001 z m -718.5355,0.10232 c -2.6069,-0.150865 -6.1923,0.276598 -10.6386,2.21795201 -9.2715,4.2634071 -27.1917,15.2726401 -40.41771,33.5767621 h 15.22601 c 8.9829,-14.809104 29.2819,-30.3708353 40.5965,-34.5425951 -0.531,-0.371921 -2.1592,-1.10125501 -4.7662,-1.25211901 z m 55.7506,0 c -2.6069,-0.150865 -6.1929,0.276598 -10.6391,2.21795201 -9.2715,4.2634071 -27.1556,15.2726401 -40.3815,33.5767621 h 15.1903 c 8.9829,-14.809104 29.2819,-30.3708353 40.5965,-34.5425951 -0.531,-0.371921 -2.1592,-1.10125501 -4.7662,-1.25211901 z m 55.7501,0 c -2.6069,-0.150865 -6.1924,0.276598 -10.6386,2.21795201 -9.2715,4.2634071 -27.0171,15.2726401 -40.243,33.5767621 h 15.0621 c 8.983,-14.809104 29.2711,-30.3708353 40.5856,-34.5425941 -0.5309,-0.371922 -2.1591,-1.10125601 -4.7661,-1.25212001 z m 49.8187,0 c -2.607,-0.150865 -6.1924,0.276598 -10.6386,2.21795201 -9.2715,4.2634073 -27.1923,15.2726401 -40.4182,33.5767621 h 15.2264 c 8.983,-14.809104 29.282,-30.3708348 40.5965,-34.5425951 -0.531,-0.371921 -2.1591,-1.10125501 -4.7661,-1.25211901 z m 55.7506,0 c -2.607,-0.150865 -6.1929,0.276598 -10.6391,2.21795201 -9.2716,4.2634073 -27.1556,15.2726401 -40.3816,33.5767621 h 15.1903 c 8.983,-14.809104 29.282,-30.3708348 40.5965,-34.5425951 -0.5309,-0.371921 -2.1591,-1.10125501 -4.7661,-1.25211901 z m 265.9579,0 c -2.6069,-0.150865 -6.1924,0.276598 -10.6386,2.21795201 -9.2715,4.263407 -27.1917,15.2726401 -40.4177,33.5767621 h 15.2259 c 8.983,-14.809104 29.282,-30.3708356 40.5965,-34.5425941 -0.5309,-0.371922 -2.1591,-1.10125601 -4.7661,-1.25212001 z m 55.7506,0 c -2.6069,-0.150865 -6.1929,0.276598 -10.6391,2.21795201 -9.2715,4.263407 -27.1556,15.2726401 -40.3815,33.5767621 h 15.1903 c 8.9829,-14.809104 29.2819,-30.3708356 40.5964,-34.5425941 -0.5309,-0.371922 -2.1591,-1.10125601 -4.7661,-1.25212001 z m 55.7501,0 c -2.607,-0.150865 -6.1924,0.276598 -10.6386,2.21795201 -9.2715,4.263407 -27.0171,15.2726401 -40.243,33.5767621 h 15.0621 c 8.983,-14.809104 29.2711,-30.3708356 40.5856,-34.5425941 -0.5309,-0.371922 -2.1591,-1.10125601 -4.7661,-1.25212001 z m 49.8187,0 c -2.607,-0.150865 -6.1924,0.276598 -10.6387,2.21795201 -9.2715,4.263407 -27.1922,15.2726401 -40.4182,33.5767621 h 15.2265 c 8.983,-14.809104 29.282,-30.3708356 40.5965,-34.5425941 -0.531,-0.371922 -2.1591,-1.10125601 -4.7661,-1.25212001 z m 55.7506,0 c -2.607,-0.150865 -6.1929,0.276598 -10.6392,2.21795201 -9.2715,4.263407 -27.1555,15.2726401 -40.3815,33.5767621 h 15.1903 c 8.983,-14.809104 29.2819,-30.3708356 40.5965,-34.5425951 -0.531,-0.371922 -2.1591,-1.10125501 -4.7661,-1.25211901 z m -304.0419,5.16e-4 c -2.607,-0.150864 -6.1929,0.276599 -10.6392,2.21795301 -9.2715,4.2634063 -27.1194,15.3749591 -40.3453,33.6790811 h 15.1903 c 8.9829,-14.809104 29.2457,-30.4731554 40.5603,-34.6449141 -0.531,-0.371921 -2.1592,-1.10125601 -4.7661,-1.25212001 z m 483.0278,0 c -2.6069,-0.150864 -6.1929,0.276599 -10.6391,2.21795301 -9.2715,4.2634058 -27.1194,15.3749591 -40.3453,33.6790811 h 15.1903 c 8.9829,-14.809104 29.2457,-30.4731549 40.5603,-34.6449141 -0.531,-0.371921 -2.1592,-1.10125601 -4.7662,-1.25212001 z m -841.7708,0.101803 c -2.607,-0.150864 -6.1929,0.276599 -10.6391,2.21795201 -9.2715,4.2634074 -27.1194,15.1703211 -40.3454,33.4744431 h 15.1903 c 8.983,-14.809104 29.2458,-30.268516 40.5603,-34.4402751 -0.5309,-0.371921 -2.1591,-1.10125601 -4.7661,-1.25212001 z m 55.7501,0 c -2.607,-0.150864 -6.1924,0.276599 -10.6386,2.21795201 -9.2715,4.2634074 -27.1194,15.1703211 -40.3454,33.4744431 h 15.1898 c 8.983,-14.809104 29.2458,-30.268516 40.5603,-34.4402751 -0.531,-0.371921 -2.1591,-1.10125601 -4.7661,-1.25212001 z m 105.5693,0 c -2.607,-0.150864 -6.1929,0.276599 -10.6392,2.21795201 -9.2715,4.2634073 -27.1194,15.1703211 -40.3453,33.4744431 h 15.1903 c 8.9829,-14.809104 29.2457,-30.2685158 40.5603,-34.4402751 -0.531,-0.371921 -2.1592,-1.10125601 -4.7661,-1.25212001 z m 55.75,0 c -2.6069,-0.150864 -6.1923,0.276599 -10.6386,2.21795201 -9.2715,4.2634073 -27.1194,15.1703211 -40.3453,33.4744431 h 15.1897 c 8.983,-14.809104 29.2458,-30.2685158 40.5604,-34.4402751 -0.531,-0.371921 -2.1592,-1.10125601 -4.7662,-1.25212001 z m 265.9585,0 c -2.607,-0.150864 -6.1929,0.276599 -10.6392,2.21795201 -9.2715,4.2634073 -27.1193,15.1703211 -40.3453,33.4744431 h 15.1903 c 8.983,-14.809104 29.2458,-30.2685163 40.5603,-34.4402751 -0.531,-0.371921 -2.1591,-1.10125601 -4.7661,-1.25212001 z m 55.7501,0 c -2.607,-0.150864 -6.1924,0.276599 -10.6387,2.21795201 -9.2715,4.2634073 -27.1193,15.1703211 -40.3453,33.4744431 h 15.1898 c 8.9829,-14.809104 29.2458,-30.2685163 40.5603,-34.4402751 -0.531,-0.371921 -2.1592,-1.10125601 -4.7661,-1.25212001 z m 105.5692,0 c -2.6069,-0.150864 -6.1929,0.276599 -10.6391,2.21795201 -9.2715,4.2634073 -27.1194,15.1703211 -40.3453,33.4744431 h 15.1902 c 8.983,-14.809104 29.2458,-30.2685163 40.5604,-34.4402751 -0.531,-0.371921 -2.1592,-1.10125601 -4.7662,-1.25212001 z m 55.7501,0 c -2.607,-0.150864 -6.1924,0.276599 -10.6386,2.21795201 -9.2715,4.2634073 -27.1194,15.1703211 -40.3453,33.4744431 h 15.1897 c 8.983,-14.809104 29.2458,-30.2685163 40.5603,-34.4402751 -0.5309,-0.371921 -2.1591,-1.10125601 -4.7661,-1.25212001 z m -415.5426,5.17e-4 c -2.6069,-0.150864 -6.1924,0.276598 -10.6386,2.21795201 -9.2715,4.2634066 -27.1917,15.2726401 -40.4177,33.5767621 h 15.226 c 8.9829,-14.809104 29.2819,-30.370835 40.5964,-34.5425941 -0.5309,-0.371921 -2.1591,-1.10125501 -4.7661,-1.25212001 z m 55.7506,0 c -2.6069,-0.150864 -6.1929,0.276598 -10.6391,2.21795201 -9.2715,4.2634066 -27.1556,15.2726401 -40.3815,33.5767621 h 15.1903 c 8.9829,-14.809104 29.2819,-30.370835 40.5965,-34.5425941 -0.531,-0.371921 -2.1592,-1.10125501 -4.7662,-1.25212001 z m 427.2773,0 c -2.607,-0.150864 -6.1924,0.276598 -10.6386,2.21795201 -9.2715,4.2634071 -27.1917,15.2726401 -40.4177,33.5767621 h 15.2259 c 8.983,-14.809104 29.282,-30.3708355 40.5965,-34.5425941 -0.5309,-0.371921 -2.1591,-1.10125501 -4.7661,-1.25212001 z m 55.7506,0 c -2.607,-0.150864 -6.1929,0.276598 -10.6391,2.21795201 -9.2715,4.2634071 -27.1556,15.2726401 -40.3815,33.5767621 h 15.1902 c 8.983,-14.809104 29.282,-30.3708355 40.5965,-34.5425941 -0.5309,-0.371921 -2.1591,-1.10125501 -4.7661,-1.25212001 z m 55.7501,0 c -2.607,-0.150864 -6.1924,0.276598 -10.6386,2.21795201 -9.2715,4.2634071 -27.0171,15.2726401 -40.243,33.5767621 h 15.0616 c 8.9829,-14.809104 29.2716,-30.3708355 40.5861,-34.5425941 -0.531,-0.371921 -2.1591,-1.10125501 -4.7661,-1.25212001 z m -897.5209,0.102319 c -2.607,-0.150864 -6.1929,0.276599 -10.6392,2.21795201 -9.2715,4.2634075 -27.0418,15.0674851 -40.2678,33.3716071 h 15.0875 c 8.9829,-14.809104 29.2711,-30.1661967 40.5856,-34.3379561 -0.531,-0.371921 -2.1592,-1.10073901 -4.7661,-1.25160301 z m 161.3193,0 c -2.607,-0.150864 -6.1929,0.276599 -10.6391,2.21795201 -9.2715,4.2634073 -27.0424,15.0674851 -40.2684,33.3716071 h 15.0875 c 8.983,-14.809104 29.2716,-30.1661969 40.5861,-34.3379561 -0.5309,-0.371921 -2.1591,-1.10073901 -4.7661,-1.25160301 z m 178.986,0 c -2.607,-0.150865 -6.1929,0.276598 -10.6391,2.21795201 -9.2716,4.2634069 -27.1194,15.1703211 -40.3454,33.4744431 h 15.1903 c 8.983,-14.809104 29.2458,-30.2685167 40.5603,-34.4402751 -0.531,-0.371921 -2.1591,-1.10125601 -4.7661,-1.25212001 z m 55.7501,0 c -2.607,-0.150864 -6.1924,0.276598 -10.6386,2.21795201 -9.2716,4.2634069 -27.1194,15.1703211 -40.3454,33.4744431 h 15.1898 c 8.983,-14.809104 29.2458,-30.2685167 40.5603,-34.4402751 -0.531,-0.371921 -2.1591,-1.10125601 -4.7661,-1.25212001 z m 86.9725,0 c -2.607,-0.150864 -6.1929,0.276599 -10.6392,2.21795201 -9.2715,4.2634084 -27.0419,15.0674851 -40.2678,33.3716071 h 15.0874 c 8.983,-14.809104 29.2711,-30.166197 40.5857,-34.3379561 -0.531,-0.371921 -2.1592,-1.10073901 -4.7661,-1.25160301 z m 161.3193,0 c -2.607,-0.150864 -6.1929,0.276599 -10.6391,2.21795201 -9.2715,4.2634074 -27.0424,15.0674851 -40.2684,33.3716071 h 15.0875 c 8.9829,-14.809104 29.2716,-30.166197 40.5861,-34.3379561 -0.5309,-0.371921 -2.1591,-1.10073901 -4.7661,-1.25160301 z m 178.986,0 c -2.607,-0.150865 -6.1929,0.276598 -10.6392,2.21795201 -9.2715,4.2634074 -27.1194,15.1703211 -40.3453,33.4744431 h 15.1903 c 8.983,-14.809104 29.2458,-30.2685172 40.5603,-34.4402751 -0.531,-0.371921 -2.1591,-1.10125601 -4.7661,-1.25212001 z m 55.7501,0 c -2.607,-0.150864 -6.1924,0.276598 -10.6387,2.21795201 -9.2715,4.2634074 -27.1194,15.1703211 -40.3453,33.4744431 h 15.1898 c 8.9829,-14.809104 29.2457,-30.2685172 40.5603,-34.4402751 -0.531,-0.371921 -2.1592,-1.10125601 -4.7661,-1.25212001 z m -557.2156,0.102836 c -2.607,-0.150864 -6.1929,0.276599 -10.6392,2.21795201 -9.2715,4.263407 -27.0424,15.0674851 -40.2683,33.3716071 h 15.0874 c 8.983,-14.809104 29.2716,-30.1661974 40.5862,-34.3379561 -0.531,-0.371921 -2.1592,-1.10073901 -4.7661,-1.25160301 z m 483.0278,0 c -2.6069,-0.150864 -6.1929,0.276598 -10.6391,2.21795201 -9.2715,4.2634065 -27.0424,15.0674851 -40.2683,33.3716071 h 15.0874 c 8.983,-14.809104 29.2716,-30.1661969 40.5862,-34.3379561 -0.531,-0.371921 -2.1592,-1.10073901 -4.7662,-1.25160301 z" />
  </g>
</svg>
