<?xml version="1.0" encoding="UTF-8" standalone="no"?>
<!-- Created with Inkscape (http://www.inkscape.org/) -->

<svg
   width="169.17986mm"
   height="30.672119mm"
   viewBox="0 0 169.17986 30.672119"
   version="1.1"
   id="svg1"
   inkscape:export-filename="bg_fields3.svg"
   inkscape:export-xdpi="96"
   inkscape:export-ydpi="96"
   xmlns:inkscape="http://www.inkscape.org/namespaces/inkscape"
   xmlns:sodipodi="http://sodipodi.sourceforge.net/DTD/sodipodi-0.dtd"
   xmlns:xlink="http://www.w3.org/1999/xlink"
   xmlns="http://www.w3.org/2000/svg"
   xmlns:svg="http://www.w3.org/2000/svg">
  <sodipodi:namedview
     id="namedview1"
     pagecolor="#ffffff"
     bordercolor="#000000"
     borderopacity="0.25"
     inkscape:showpageshadow="2"
     inkscape:pageopacity="0.0"
     inkscape:pagecheckerboard="0"
     inkscape:deskcolor="#d1d1d1"
     inkscape:document-units="mm"
     inkscape:zoom="11.762019"
     inkscape:cx="521.72166"
     inkscape:cy="3.4432864"
     inkscape:window-width="2560"
     inkscape:window-height="1369"
     inkscape:window-x="-8"
     inkscape:window-y="-8"
     inkscape:window-maximized="1"
     inkscape:current-layer="svg1">
    <inkscape:page
       x="0"
       y="-2.0871946e-31"
       width="169.17986"
       height="30.672119"
       id="page2"
       margin="0"
       bleed="0" />
  </sodipodi:namedview>
  <defs
     id="defs1">
    <linearGradient
       id="linearGradient17"
       inkscape:collect="always">
      <stop
         style="stop-color:#000000;stop-opacity:1;"
         offset="0.41647059"
         id="stop17" />
      <stop
         style="stop-color:#000000;stop-opacity:0;"
         offset="0.59058827"
         id="stop18" />
    </linearGradient>
    <linearGradient
       inkscape:collect="always"
       xlink:href="#linearGradient17"
       id="linearGradient18"
       x1="56.004219"
       y1="69.265266"
       x2="56.004219"
       y2="238.44511"
       gradientUnits="userSpaceOnUse" />
  </defs>
  <g
     inkscape:label="Layer 1"
     inkscape:groupmode="layer"
     id="layer1"
     transform="translate(28.585706,-137.91725)">
    <path
       id="path1"
       style="fill:url(#linearGradient18);stroke-width:0.264583"
       d="m 82.927315,139.35736 c 2.893582,0.99076 27.689785,-0.90244 44.098665,1.38514 5.06122,0.57032 8.45537,1.35141 13.37748,2.54869 v -3.23081 c -12.15798,-1.87709 -24.13291,-3.35605 -57.476145,-0.70302 z m -1.280309,0.12183 -2.716794,0.16874 c 0.10242,3.411 19.823649,1.36913 30.739208,3.06596 11.30831,1.75788 15.23396,2.38605 30.73404,8.28632 v -6.08904 c -9.43751,-2.40263 -13.13877,-3.19324 -22.97172,-4.06125 -17.00738,-1.50135 -32.460011,0.30216 -35.784734,-1.37073 z m -3.901856,0.25101 -2.641578,0.17039 c -2.18116,4.88174 19.635353,3.61192 35.445898,8.43101 10.88471,3.53428 19.46641,7.86315 30.04468,17.21393 l -0.19069,-12.05714 c -8.35777,-4.02225 -10.39086,-4.78376 -19.93315,-7.31067 -20.638775,-5.7406 -42.425935,-2.19221 -42.72516,-6.44752 z m -106.330856,0.02 c 14.502421,0.64062 22.6077257,0.6107 29.20286865,0.86816 6.56817405,0.0923 11.97650535,0.6872 23.51484335,-0.0868 l -1.840714,-0.26716 c -7.758906,-0.99977 -16.189545,-1.2009 -50.876998,-0.51418 z m 102.845919,0.23202 -2.32544,0.23565 c -3.689463,7.26985 9.185618,3.86411 26.237675,12.62093 6.894472,3.64311 11.547492,5.69981 21.616772,15.75046 h 20.61424 C 131.05592,159.43861 128.24484,158.3345 121.58187,154.5029 101.2599,143.33214 70.735329,146.28467 74.260213,139.98234 Z m -3.137276,0.30489 -2.579688,0.308 c -6.091678,9.05784 7.372366,7.86861 14.794446,14.49834 5.15403,4.33078 6.293946,5.78461 12.044226,13.49581 H 116.15585 C 106.80831,159.43865 103.96519,158.3345 97.302217,154.5029 76.980237,143.33214 67.470019,148.21745 71.122937,140.28723 Z m -99.708643,0.0258 v 1.57768 c 18.078325,0.31178 20.6066132,0.38469 32.1851156,0.41962 6.2811489,-0.11238 14.7630504,0.33231 23.9443824,-1.29965 l -2.322446,-0.24961 c -5.63433,0.64177 -14.94546,0.63998 -23.4037398,0.39119 -7.7347989,-0.11919 -12.8987062,-0.26388 -30.4033122,-0.83923 z m 96.333138,0.36846 -2.850472,0.44958 c -6.051125,5.90119 -1.469674,8.89534 1.469678,12.66383 2.673988,4.28127 3.680637,6.63335 4.485514,14.79444 h 20.86901 c -6.54805,-9.59641 -9.899665,-12.10062 -14.653885,-15.55047 -4.67031,-3.91754 -15.197677,-4.39361 -9.319845,-12.35738 z m -38.803312,0.54396 c -9.903639,1.37515 -13.150342,1.73864 -22.9551922,1.7329 -10.8072355,-0.0209 -15.8353455,-0.13617 -34.5746338,-0.28991 v 2.44068 c 20.877814,-0.75704 24.3205527,-0.54369 36.4587565,-0.8077 9.6228755,-0.13394 12.0753305,-0.55044 24.6217525,-2.93574 z m 35.229887,0.006 -2.580721,0.21291 c -6.122689,5.15294 -7.632245,6.53619 -7.709607,12.90877 -0.414239,6.56264 -1.16879,7.60224 -7.221265,14.23634 h 20.773409 c 0.06892,-6.79692 -0.515024,-9.31506 -2.851505,-14.5464 -3.672827,-5.78184 -5.348987,-8.34007 -0.410311,-12.81162 z m -30.191439,0.23978 c -17.051875,3.17483 -9.583938,2.59725 -25.2351523,3.43028 -10.8059277,0.16943 -17.9780191,0.86113 -37.3331217,1.19321 v 4.07211 c 20.7594606,-2.34542 29.30180176,-1.93717 41.231075,-3.46439 17.735529,-2.77893 11.406223,-2.65805 24.824325,-5.0152 z m 26.604578,0.0305 -2.823601,0.0951 c -9.040625,4.7967 -11.938553,7.58539 -15.580444,12.50207 -3.761866,4.73671 -11.820715,9.51393 -20.74137,14.49059 h 20.696411 c 6.367765,-5.01543 9.72125,-10.02627 9.970451,-14.68179 0.376223,-5.9618 3.494063,-8.44556 8.478553,-12.40596 z m -3.874699,0.13229 -3.301608,0.12454 c -13.134665,5.51647 -17.276799,9.44782 -20.063891,11.35021 -5.545229,3.28482 -24.9327939,10.50405 -36.7801841,15.48071 H 17.353092 c 9.786962,-5.1504 20.223656,-10.95932 23.445081,-15.31121 6.247585,-6.83539 8.05046,-7.23396 15.914274,-11.64425 z m -7.028586,0.30837 c -14.844264,4.34682 -17.399384,8.23252 -27.429776,10.89973 -12.2936452,3.05987 -38.992401,10.7707 -50.839791,15.74736 h 20.6741903 c 9.786962,-5.1504 28.9061277,-10.86686 36.1766027,-14.40894 5.390921,-2.427 14.396718,-9.20436 23.960436,-12.38804 z M 39.147627,141.8122 c -17.051875,3.17483 -7.224527,2.57073 -28.301631,5.84718 -10.42418027,1.44192 -21.794466,2.11763 -39.431702,3.78582 v 6.55361 c 20.8867101,-4.89041 31.4600113,-6.59845 43.329138,-8.5385 15.763163,-3.03343 14.402939,-5.22792 27.821041,-7.58507 z m 5.206401,0.0822 c -14.876076,2.56533 -17.584508,7.86233 -39.2978598,10.69341 -10.6473233,1.82171 -19.3131212,3.39016 -33.6418742,7.41246 v 6.55361 c 11.441204,-5.02315 36.4102381,-11.45074 44.461886,-13.51804 15.926202,-3.02128 11.610382,-4.85841 32.179947,-11.08614 z"
       sodipodi:nodetypes="cccccccsccsccccccccccccccccccccccccccccccccccccccccccccccccccccccccccccccccccccccccccccccccccccccccccccccccccccc" />
  </g>
</svg>
