<?xml version="1.0" encoding="UTF-8" standalone="no"?>
<!-- Created with Inkscape (http://www.inkscape.org/) -->

<svg
   width="169.17986mm"
   height="31.889481mm"
   viewBox="0 0 169.17986 31.88948"
   version="1.1"
   id="svg1"
   xmlns:xlink="http://www.w3.org/1999/xlink"
   xmlns="http://www.w3.org/2000/svg"
   xmlns:svg="http://www.w3.org/2000/svg">
  <defs
     id="defs1">
    <linearGradient
       id="linearGradient17">
      <stop
         style="stop-color:#000000;stop-opacity:1;"
         offset="0.41647059"
         id="stop17" />
      <stop
         style="stop-color:#000000;stop-opacity:0;"
         offset="0.59058827"
         id="stop18" />
    </linearGradient>
    <linearGradient
       xlink:href="#linearGradient17"
       id="linearGradient18"
       x1="56.004219"
       y1="69.265266"
       x2="56.004219"
       y2="238.44511"
       gradientUnits="userSpaceOnUse" />
  </defs>
  <g
     id="layer1"
     transform="translate(28.585706,-136.70011)">
    <path
       id="path1"
       style="fill:url(#linearGradient18);stroke-width:0.264583"
       d="m -28.585687,138.19527 c 0,0 33.2706665,2.02487 50.141125,1.82366 -9.856293,-2.2449 -15.2631437,-3.31882 -30.9560547,-3.31882 h -14.8552163 -4.329873 z m 111.513071,1.1622 c 2.893582,0.99076 27.689716,-0.90265 44.098596,1.38493 5.06122,0.57032 8.64605,1.50886 13.56816,2.70614 v -4.19676 c -14.99344,-2.55167 -37.71107,-2.17085 -57.666756,0.10569 z m -111.51309,-0.74104 v 1.13378 c 14.502421,0.64062 22.6077257,0.61071 29.20286865,0.86817 6.56817405,0.0923 11.97650535,0.68718 23.51484335,-0.0868 l -1.840714,-0.26717 c -15.7452038,0.52681 -50.77409,-1.72161 -50.876998,-1.64796 z m 110.232548,0.863 -2.71663,0.16846 c 0.10242,3.411 10.777466,0.60388 30.964158,3.29092 12.62724,2.09064 28.68711,7.21393 30.69977,8.22268 v -6.22786 c -9.43751,-2.40263 -13.32945,-3.21573 -23.1624,-4.08374 -17.00738,-1.50135 -32.460175,0.30243 -35.784898,-1.37046 z m -3.901571,0.25063 -2.641699,0.17053 c -2.18116,4.88174 19.635354,3.61192 35.445898,8.43101 10.88471,3.53428 19.46641,7.86316 30.04468,17.21394 l -1e-5,-12.02534 c -8.35777,-4.02225 -10.58154,-4.81556 -20.12383,-7.34247 -20.638773,-5.7406 -42.425814,-2.19236 -42.725039,-6.44767 z m -3.485058,0.25218 -2.32544,0.23564 c -3.689463,7.26985 9.185618,3.86412 26.237675,12.62094 6.894472,3.64311 11.547492,5.69981 21.616772,15.75046 h 20.61424 C 131.05592,159.43863 128.24484,158.3344 121.58187,154.5028 101.2599,143.33204 70.735329,146.28457 74.260213,139.98224 Z m -3.137276,0.30489 -2.579688,0.30799 c -6.091678,9.05784 7.372366,7.86861 14.794446,14.49834 5.15403,4.33078 6.293946,5.78462 12.044226,13.49582 H 116.15585 C 106.80831,159.43867 103.96519,158.3344 97.302217,154.5028 76.980237,143.33204 67.470019,148.21735 71.122937,140.28713 Z m -99.708643,0.0258 v 1.57768 c 18.078325,0.31178 20.6066132,0.38468 32.1851156,0.41961 6.2811489,-0.11238 14.7629424,0.3323 23.9442744,-1.29966 l -2.322338,-0.2496 c -5.63433,0.64177 -14.94546,0.63998 -23.4037398,0.39119 C -5.9171927,141.033 -11.0811,140.88832 -28.585706,140.31297 Z m 96.333138,0.36845 -2.850472,0.44959 c -6.051125,5.90119 -1.469674,8.89533 1.469678,12.66382 2.673988,4.28127 3.680637,6.63336 4.485514,14.79445 h 20.86901 c -6.54805,-9.59641 -9.899665,-12.10062 -14.653885,-15.55047 -4.67031,-3.91754 -15.197677,-4.39362 -9.319845,-12.35739 z m -38.803316,0.54416 c -9.903639,1.37515 -13.150338,1.73845 -22.9551882,1.73271 -10.8072355,-0.0209 -15.8353455,-0.13617 -34.5746338,-0.28991 v 2.44068 c 20.877814,-0.75704 24.3205527,-0.54369 36.4587565,-0.8077 9.6228755,-0.13394 12.0753305,-0.55044 24.6217525,-2.93574 z m 35.229891,0.006 -2.580721,0.21291 c -6.122689,5.15294 -7.632245,6.53619 -7.709607,12.90877 -0.414239,6.56264 -1.16879,7.60224 -7.221265,14.23634 h 20.773409 c 0.06892,-6.79692 -0.515024,-9.31506 -2.851505,-14.5464 -3.672827,-5.78184 -5.348987,-8.34007 -0.410311,-12.81162 z m -30.191439,0.23978 c -17.051875,3.17483 -9.583938,2.59725 -25.2351523,3.43028 -7.3257352,0.11486 -12.9815893,0.46998 -21.8953047,0.79013 -4.234585,0.1521 -9.204249,0.29613 -15.437817,0.40308 v 4.0721 c 20.7594606,-2.34542 29.30180179,-1.93717 41.231075,-3.46439 17.735529,-2.77893 11.406223,-2.65804 24.824325,-5.01519 z m 26.604578,0.0305 -2.823601,0.0951 c -9.040625,4.7967 -11.938553,7.5854 -15.580444,12.50208 -3.761866,4.73671 -11.820715,9.51393 -20.74137,14.49059 h 20.696411 c 6.367765,-5.01543 9.72125,-10.02627 9.970451,-14.68179 0.376223,-5.9618 3.494063,-8.44556 8.478553,-12.40596 z m -3.874699,0.13229 -3.301608,0.12454 c -13.134665,5.51647 -17.276799,9.44782 -20.063891,11.35021 -5.545229,3.28482 -24.9327939,10.50405 -36.7801841,15.48071 H 17.353092 c 9.786962,-5.1504 20.223656,-10.95932 23.445081,-15.31121 6.247585,-6.83539 8.05046,-7.23396 15.914274,-11.64425 z m -4.487065,0.15865 -3.177067,0.13849 c -14.844264,4.34682 -16.763838,8.24375 -26.79423,10.91096 -12.2936453,3.05987 -38.992401,10.7707 -50.839791,15.74736 h 20.6741903 c 9.786962,-5.1504 28.9061277,-10.86686 36.1766027,-14.40894 5.390921,-2.427 14.396577,-9.20419 23.960295,-12.38787 z m -13.077755,0.0196 c -17.051875,3.17483 -7.224527,2.57074 -28.301631,5.84719 -10.42418061,1.44192 -21.794466,2.11763 -39.431702,3.78582 v 6.5536 c 20.8867101,-4.89041 31.4600115,-6.59845 43.329138,-8.5385 15.763163,-3.03343 14.402939,-5.22791 27.821041,-7.58506 z m 8.526095,0.14315 -3.383256,0.0661 c -12.48585,1.79636 -12.871923,5.78059 -39.5841473,10.27999 -9.7686156,1.69202 -13.9940623,2.31241 -33.2920247,7.69876 v 6.5536 c 11.441204,-5.02315 36.4737994,-11.32309 44.525448,-13.39039 15.677065,-3.83785 11.164415,-4.98037 31.73398,-11.2081 z" />
  </g>
</svg>
