<?xml version="1.0" encoding="UTF-8" standalone="no"?>
<!-- Created with Inkscape (http://www.inkscape.org/) -->

<svg
   width="300.23166mm"
   height="157.44351mm"
   viewBox="0 0 300.23164 157.44351"
   version="1.1"
   id="svg1"
   inkscape:export-filename="bg_river2.svg"
   inkscape:export-xdpi="96"
   inkscape:export-ydpi="96"
   inkscape:version="1.4.2 (f4327f4, 2025-05-13)"
   sodipodi:docname="bg_river.svg"
   xmlns:inkscape="http://www.inkscape.org/namespaces/inkscape"
   xmlns:sodipodi="http://sodipodi.sourceforge.net/DTD/sodipodi-0.dtd"
   xmlns:xlink="http://www.w3.org/1999/xlink"
   xmlns="http://www.w3.org/2000/svg"
   xmlns:svg="http://www.w3.org/2000/svg">
  <sodipodi:namedview
     id="namedview1"
     pagecolor="#ffffff"
     bordercolor="#000000"
     borderopacity="0.25"
     inkscape:showpageshadow="2"
     inkscape:pageopacity="0.0"
     inkscape:pagecheckerboard="0"
     inkscape:deskcolor="#d1d1d1"
     inkscape:document-units="mm"
     inkscape:zoom="2.0792508"
     inkscape:cx="208.00761"
     inkscape:cy="744.25845"
     inkscape:window-width="2560"
     inkscape:window-height="1369"
     inkscape:window-x="-8"
     inkscape:window-y="-8"
     inkscape:window-maximized="1"
     inkscape:current-layer="svg1">
    <inkscape:page
       x="0"
       y="0"
       width="300.23163"
       height="157.44351"
       id="page1"
       margin="0"
       bleed="0" />
  </sodipodi:namedview>
  <defs
     id="defs1">
    <linearGradient
       id="linearGradient1"
       inkscape:collect="always">
      <stop
         style="stop-color:#000000;stop-opacity:0.80808079;"
         offset="0"
         id="stop1" />
      <stop
         style="stop-color:#000000;stop-opacity:0.38383839;"
         offset="0.8185941"
         id="stop2" />
    </linearGradient>
    <linearGradient
       inkscape:collect="always"
       xlink:href="#linearGradient1"
       id="linearGradient2"
       x1="87.349449"
       y1="238.78705"
       x2="87.349449"
       y2="85.165688"
       gradientUnits="userSpaceOnUse" />
    <linearGradient
       inkscape:collect="always"
       xlink:href="#linearGradient1"
       id="linearGradient2-4"
       x1="87.349449"
       y1="238.78705"
       x2="87.349449"
       y2="85.165688"
       gradientUnits="userSpaceOnUse"
       gradientTransform="translate(-17.991667,3.96875)" />
  </defs>
  <g
     inkscape:label="Layer 1"
     inkscape:groupmode="layer"
     id="layer1"
     transform="translate(-10.538769,-129.7341)">
    <path
       style="display:inline;fill:url(#linearGradient2);stroke-width:0.264583"
       d="m 306.80727,129.7341 c -7.16287,11.75778 -115.89533,4.47232 -122.54177,14.38186 -6.34086,9.65353 28.52657,8.57869 45.83315,8.32128 12.89583,-0.36514 33.53154,2.72123 27.30652,11.23348 -9.66755,12.46414 -23.90519,9.70403 -36.30594,9.9458 -8.94995,0.0314 -76.50436,-5.00898 -73.61707,3.87605 -0.30144,5.94835 29.9293,6.86467 50.90177,8.1573 27.9521,1.2112 74.92498,-1.96101 76.49011,11.61383 -0.40003,20.92479 -67.53906,17.82485 -92.20726,18.84542 -29.66527,0.41112 -143.912893,-6.40275 -146.732563,0.58178 -5.179653,15.83991 32.611306,14.28146 54.536632,15.67222 22.436701,0.9942 72.334921,-3.06815 73.689271,15.42538 -0.954,10.29844 -12.0141,12.95061 -32.58428,13.32718 -10.53015,1.1089 -21.65888,2.02066 -24.94088,9.5437 -0.78118,4.32442 -1.57791,10.93652 0.30389,16.40129 -5.19089,0.10191 -35.717041,0.1962 -43.768393,0.0127 0.112117,-7.81712 2.015217,-14.96219 7.198438,-20.99499 14.341664,-12.54854 18.221229,-11.61346 45.432015,-13.03349 14.09618,-0.45071 21.88786,-0.59994 22.90089,-6.05387 -0.58934,-9.60572 -44.425932,-8.17405 -63.624679,-8.01671 -19.087543,-0.33365 -63.793132,0.90001 -64.538352,-21.22693 5.342514,-19.71937 84.604863,-13.09715 153.621331,-9.01962 17.96195,-0.11197 88.6643,3.93714 89.98423,-11.11959 1.04597,-7.42781 -69.59479,-4.72161 -88.21101,-5.99089 -12.7628,-2.15557 -31.01417,-1.3536 -33.70845,-15.44516 2.84976,-15.34923 71.65803,-8.32327 83.93016,-8.35047 15.64657,-0.74097 27.84263,0.82386 30.87874,-4.90605 3.98411,-5.81311 -16.5801,-4.61164 -31.22238,-4.58 -7.10634,-0.32948 -14.10627,-0.64817 -20.31563,-1.18944 -17.19875,-1.4992 -28.3323,-4.70592 -18.8623,-14.57869 8.59143,-10.76123 123.21188,-3.70869 127.05857,-12.83337 z"
       id="path1"
       sodipodi:nodetypes="ccccccccccccccccccccccccccccsccc" />
    <path
       style="fill:url(#linearGradient2-4);stroke-width:0.264583"
       d="m 310.77043,129.7341 c -2.66392,13.3774 -114.91086,7.90732 -120.86224,15.53491 -4.34127,7.97048 42.61023,4.81489 59.90856,5.40784 9.56397,0.29107 19.47488,4.84609 13.37302,13.44705 -9.66755,12.46414 -15.64898,14.1194 -23.55078,14.36117 -8.94905,0.13068 -81.62677,-6.71414 -82.97488,-0.98281 -0.30144,5.94835 49.18479,3.44547 73.21654,3.83831 27.97828,-0.0534 54.76971,4.15755 53.99539,17.37248 -1.47978,22.00454 -60.34076,23.04362 -92.56719,22.80449 -10.88646,-0.38021 -33.01645,-1.47351 -56.88318,-2.41876 -41.135995,-1.62921 -87.431316,-2.8186 -90.209285,0.84105 -2.479549,7.75711 42.688941,6.90318 65.694015,7.39415 22.45865,0.0511 64.59674,1.97067 62.35193,19.56441 -2.23855,11.39645 -6.12277,16.25533 -26.28576,19.44575 -10.53015,1.1089 -27.59749,-0.6787 -30.87949,6.84434 -2.04088,4.32442 3.00326,13.98913 3.00326,13.98913 h -7.20242 c 0,0 -2.55493,-10.41773 -0.39434,-15.69081 4.67837,-7.45351 24.12425,-8.15662 34.81452,-8.71451 14.09617,-0.45071 22.33321,-6.24713 22.54096,-15.23172 3.00981,-16.80403 -43.16622,-17.71181 -62.36497,-17.55447 -19.087539,-0.33365 -65.95262,3.59938 -65.978009,-10.60941 0.755924,-6.21441 49.636473,-5.08186 93.036029,-3.27036 2.82935,0.1181 5.6354,0.23908 8.40331,0.3611 21.57847,0.95127 40.83843,1.96564 50.74232,2.16769 17.96195,-0.11197 85.96494,1.2378 87.46483,-20.29743 0.14618,-13.0065 -30.54395,-12.99967 -49.16017,-14.26895 -12.94285,-0.1348 -78.70299,1.70569 -77.97807,-6.98714 5.20938,-9.99651 80.25986,1.44691 90.5886,-1.51208 11.169,-1.86123 13.80352,-7.62618 17.02199,-10.84466 3.98411,-5.81311 2.428,-11.5013 -12.16869,-12.65626 -26.78956,-1.24206 -68.78118,2.14617 -58.77149,-8.23174 5.66531,-6.02159 113.37044,-2.99854 120.99624,-14.10276 z"
       id="path1-5"
       sodipodi:nodetypes="cccccccccsccccccccccccsscccccccccc" />
  </g>
</svg>
