<?xml version="1.0" encoding="UTF-8" standalone="no"?>
<!-- Created with Inkscape (http://www.inkscape.org/) -->

<svg
   width="153.62135mm"
   height="250.14803mm"
   viewBox="0 0 153.62135 250.14802"
   version="1.1"
   id="svg1"
   inkscape:export-filename="bg_river.svg"
   inkscape:export-xdpi="96"
   inkscape:export-ydpi="96"
   inkscape:version="1.4.2 (f4327f4, 2025-05-13)"
   sodipodi:docname="bg_river.svg"
   xmlns:inkscape="http://www.inkscape.org/namespaces/inkscape"
   xmlns:sodipodi="http://sodipodi.sourceforge.net/DTD/sodipodi-0.dtd"
   xmlns:xlink="http://www.w3.org/1999/xlink"
   xmlns="http://www.w3.org/2000/svg"
   xmlns:svg="http://www.w3.org/2000/svg">
  <sodipodi:namedview
     id="namedview1"
     pagecolor="#ffffff"
     bordercolor="#000000"
     borderopacity="0.25"
     inkscape:showpageshadow="2"
     inkscape:pageopacity="0.0"
     inkscape:pagecheckerboard="0"
     inkscape:deskcolor="#d1d1d1"
     inkscape:document-units="mm"
     inkscape:zoom="2.0792508"
     inkscape:cx="208.00761"
     inkscape:cy="744.25845"
     inkscape:window-width="2560"
     inkscape:window-height="1369"
     inkscape:window-x="-8"
     inkscape:window-y="-8"
     inkscape:window-maximized="1"
     inkscape:current-layer="svg1">
    <inkscape:page
       x="0"
       y="0"
       width="153.62135"
       height="250.14803"
       id="page2"
       margin="0"
       bleed="0" />
  </sodipodi:namedview>
  <defs
     id="defs1">
    <linearGradient
       id="linearGradient1"
       inkscape:collect="always">
      <stop
         style="stop-color:#000000;stop-opacity:0.80808079;"
         offset="0"
         id="stop1" />
      <stop
         style="stop-color:#000000;stop-opacity:0.38383839;"
         offset="0.8185941"
         id="stop2" />
    </linearGradient>
    <linearGradient
       inkscape:collect="always"
       xlink:href="#linearGradient1"
       id="linearGradient2"
       x1="87.349449"
       y1="238.78705"
       x2="87.349449"
       y2="85.165688"
       gradientUnits="userSpaceOnUse" />
  </defs>
  <g
     inkscape:label="Layer 1"
     inkscape:groupmode="layer"
     id="layer1"
     transform="translate(-10.538769,-36.902363)">
    <path
       style="fill:url(#linearGradient2);stroke-width:0.264583"
       d="m 113.32153,41.619304 c 0.0218,4.050316 -46.873913,4.454551 -48.325412,9.486302 -2.132698,5.369755 43.644952,0.793428 48.466832,8.57306 -9.25429,10.86996 -38.6372,0.863304 -40.026679,8.879994 -1.256692,6.520263 64.290479,-0.527184 64.970929,9.316826 -0.32627,11.195451 -35.32513,8.253857 -41.502196,8.519016 -9.627871,-0.282875 -33.211094,-0.239069 -37.993739,5.360659 -4.213356,5.90231 29.415742,8.924429 36.117781,8.960829 13.841784,0.98977 39.277114,-0.1743 43.672744,10.37269 0.17741,11.9527 -37.90698,11.92147 -49.950803,11.82581 -9.962499,1.14698 -57.897913,-3.17821 -55.411656,9.17033 1.901707,7.91817 51.837688,8.19055 63.115681,8.65297 10.376418,-0.0952 39.585708,2.98852 33.360688,11.50077 -13.99403,15.77262 -30.267663,12.50351 -42.668415,12.74528 -8.949951,0.0314 -42.316064,0.081 -39.428777,8.96603 -0.301437,5.94835 24.075827,7.88266 45.0483,9.17529 27.952102,1.2112 63.472542,-3.488 65.037672,10.08684 -5.58793,17.33623 -50.23315,14.51637 -71.338371,13.75545 -25.593288,-1.11587 -55.017315,-2.16931 -51.295388,10.74144 6.093575,13.15354 33.374802,13.26347 55.300128,14.65423 22.436701,0.9942 72.334921,-3.06815 73.689271,15.42538 -0.954,10.29844 -12.0141,12.95061 -32.58428,13.32718 -10.53015,1.1089 -21.65888,2.02066 -24.94088,9.5437 -0.78118,4.32442 -1.57791,10.93652 0.30389,16.40129 -5.19089,0.10191 -35.717041,0.1962 -43.768393,0.0127 0.112117,-7.81712 2.015217,-14.96219 7.198438,-20.99499 14.341664,-12.54854 18.221229,-11.61346 45.432015,-13.03349 14.09618,-0.45071 17.30688,-0.59994 18.31991,-6.05387 -0.58934,-9.60572 -39.844952,-8.17405 -59.043699,-8.01671 -19.087543,-0.33365 -63.793132,0.90001 -64.538352,-21.22693 1.454294,-15.58004 18.594493,-19.14448 29.931115,-19.36298 12.763269,-0.037 23.753077,1.05448 34.860124,1.71069 17.961949,-0.11197 59.690232,2.32468 61.744762,-6.53862 1.04597,-7.42781 -58.142351,-3.19462 -76.758576,-4.4639 -12.762802,-2.15557 -31.014166,-1.3536 -33.708451,-15.44516 2.849761,-15.34923 43.323213,-14.43124 55.59534,-14.45844 15.646571,-0.74097 23.339377,1.15546 32.660237,-7.96003 2.26648,-6.67296 -16.580099,-4.61164 -31.222385,-4.58 -26.789558,-1.24206 -61.228894,0.72304 -64.627793,-15.25913 1.217358,-15.50563 48.225313,-13.16551 59.500393,-13.26518 9.297558,-0.58709 48.694195,1.36766 47.463335,-7.16316 -1.47432,-6.83639 -29.410399,-5.71461 -38.466584,-6.58234 C 71.500659,102.58846 51.221998,103.37738 47.804511,91.791169 54.57691,79.87066 84.995472,82.41936 96.965525,82.995534 106.80705,82.7395 129.71051,82.860501 129.75568,78.774319 131.58681,69.69852 67.991385,81.105623 66.678662,69.478198 69.576654,57.23866 107.13734,66.400493 108.4222,59.87649 c 2.04236,-4.935992 -46.857129,-0.805499 -47.715026,-8.525707 4.78492,-7.756585 46.625636,-6.114623 48.293266,-9.911109 0.86122,-3.462979 -19.008633,-3.508805 -14.291204,-4.537311 6.055834,0.988189 17.445734,1.380678 18.612294,4.716941 z"
       id="path1"
       sodipodi:nodetypes="ccccccccccccccccccccccccccccccccccccccccccccccccccc" />
  </g>
</svg>
