<svg xmlns="http://www.w3.org/2000/svg" viewBox="0 0 500 500"><path d="M430.31 224.6c-.63.04-1.27.12-1.9.12H266.56c-14.52 0-29.03.01-43.55.1-3.1.02-5.25-1.15-6.97-3.76-4.17-6.34-8.54-12.55-12.83-18.82-.24-.35-.48-.71-.88-1.3h36.53c-.51-.55-.79-.87-1.09-1.17-3.84-3.85-7.73-7.66-11.53-11.55-5.04-5.16-3.66-13.34 2.68-16.3 3.84-1.79 8.31-.99 11.4 2.08 4.03 4 8.04 8.03 12.05 12.05.31.31.55.69.88 1.13.48-.46.8-.74 1.1-1.04 3.9-3.9 7.8-7.81 11.71-11.71 3.03-3.03 6.65-3.98 10.67-2.56 3.99 1.41 6.2 4.41 6.6 8.61.28 2.98-.69 5.61-2.81 7.74-3.83 3.86-7.69 7.7-11.53 11.55-.3.3-.58.62-1.01 1.08h79.18c-.4-.42-.67-.73-.96-1.02l-11.37-11.37c-3.98-3.99-4.05-10.3-.16-14.23 3.93-3.97 10.27-3.92 14.32.12 4.02 4.01 8.04 8.03 12.04 12.05.31.31.53.71.94 1.28.79-.9 1.34-1.58 1.95-2.2 3.64-3.66 7.26-7.33 10.95-10.94 2.83-2.76 6.23-3.69 10.04-2.52 3.76 1.15 6.1 3.75 6.86 7.59.7 3.49-.28 6.58-2.8 9.12-3.66 3.69-7.35 7.36-11.02 11.03-.3.3-.58.62-1.1 1.17H428.65c.56 0 1.11.08 1.67.12v23.52zM430.31 361.84c-1.28.01-2.55.04-3.83.04h-87.72c-7.8 0-15.6 0-23.4.1-2.77.03-4.68-1-6.32-3.3-9.91-13.9-19.93-27.72-29.91-41.56-.7-.97-1.37-1.95-2.22-3.16h151.63c.59 0 1.19-.07 1.78-.11v48zM332.9 440.01H176.79c-13.27-79.63-26.57-159.38-39.89-239.29h1.47c4.6.03 9.19.12 13.79.06 4.35-.05 8.69-.28 13.04-.37 1.6-.03 3.24-.09 4.8.22 1.04.2 1.97.77 2.63 1.59 1.83 2.31 3.48 4.77 5.16 7.21 43.8 63.39 145.02 215.79 153.83 228.6.38.56.73 1.14 1.27 1.98zM151.72 440.04h-80.4V200.92h40.55c13.27 79.63 26.55 159.26 39.86 239.12zM430.05 243.92v49.12h-36.39c-7.16 0-14.32-.05-21.47-.07-18.76-.06-37.51-.12-56.27-.16-16.84-.04-33.67-.07-50.51-.07-2.55 0-4.53-.86-6.03-2.99-10.26-14.62-20.56-29.22-30.85-43.83-.43-.61-.84-1.23-1.36-1.99h202.88zM326.42 384.69h103.59v55.39h-6.04c-9.24.03-18.48.03-27.71.09-9.52.05-19.03.1-28.54.27-2.92.05-4.88-1.11-6.46-3.5-8.94-13.54-17.95-27.03-26.95-40.53-2.57-3.85-5.17-7.68-7.89-11.72z"/></svg>